<svg xmlns="http://www.w3.org/2000/svg" xmlns:xlink="http://www.w3.org/1999/xlink" version="1.1" x="0px" y="0px" viewBox="0 0 425.197 531.49625" enable-background="new 0 0 425.197 425.197" xml:space="preserve"><g><path d="M250.984,185.885c0.094,0.094,0.221,0.146,0.353,0.146c0.001,0,0.002,0,0.003,0l50.647-0.313   c0.725-0.004,1.043-0.317,1.183-0.58c0.367-0.691-0.201-1.609-0.377-1.858c-17.509-18.046-37.591-25.257-51.354-28.128   c-0.148-0.029-0.302,0.007-0.418,0.102c-0.117,0.095-0.185,0.237-0.185,0.388v29.89   C250.837,185.663,250.89,185.791,250.984,185.885z M251.837,156.258c13.605,2.927,33.159,10.114,50.182,27.647   c0.177,0.266,0.314,0.658,0.272,0.757c0,0-0.066,0.055-0.31,0.056l-50.145,0.31V156.258z"/><path d="M229.797,200.518h1.256c0.82,1.849,2.675,3.082,4.711,3.082s3.891-1.232,4.711-3.082h3.135   c1.096,0,1.987-0.892,1.987-1.987s-0.892-1.987-1.987-1.987h-3.059c-0.776-1.959-2.662-3.266-4.787-3.266   c-2.126,0-4.012,1.306-4.787,3.266h-1.18c-1.096,0-1.987,0.892-1.987,1.987S228.701,200.518,229.797,200.518z M235.764,203.199   c-1.818,0-3.479-1.066-4.27-2.682h8.539C239.241,202.133,237.582,203.199,235.764,203.199z M235.764,193.678   c1.907,0,3.602,1.142,4.352,2.865h-8.705C232.161,194.818,233.856,193.678,235.764,193.678z M229.797,197.143h13.813   c0.765,0,1.388,0.623,1.388,1.388s-0.623,1.388-1.388,1.388h-13.813c-0.765,0-1.388-0.623-1.388-1.388   S229.032,197.143,229.797,197.143z"/><path d="M242.797,199.58c0.982,0,1.752-0.462,1.752-1.051s-0.77-1.05-1.752-1.05s-1.752,0.461-1.752,1.05   S241.814,199.58,242.797,199.58z M242.797,197.88c0.797,0,1.352,0.342,1.352,0.649s-0.555,0.65-1.352,0.65s-1.352-0.343-1.352-0.65   S242,197.88,242.797,197.88z"/><path d="M53.676,227.098h14.908c0.754,0,1.555-0.585,1.822-1.332l0.443-1.232c0.146-0.405,0.11-0.806-0.098-1.101   c-0.197-0.28-0.521-0.435-0.91-0.435H54.934c-0.754,0-1.556,0.585-1.823,1.332l-0.443,1.232c-0.146,0.404-0.109,0.806,0.098,1.1   C52.962,226.943,53.285,227.098,53.676,227.098z M70.262,223.778c0.093,0.132,0.102,0.334,0.023,0.552l-0.443,1.232   c-0.182,0.507-0.758,0.936-1.258,0.936H56.771l1.123-2.9h11.947C69.976,223.598,70.157,223.629,70.262,223.778z M53.231,225.766   l0.443-1.232c0.182-0.507,0.759-0.936,1.259-0.936h2.318l-1.123,2.9h-2.453c-0.134,0-0.315-0.031-0.421-0.181   C53.162,226.185,53.153,225.983,53.231,225.766z"/><path d="M372.757,221.875c-0.268-0.747-1.069-1.332-1.823-1.332h-8.85c-0.39,0-0.713,0.154-0.91,0.435   c-0.208,0.295-0.243,0.695-0.098,1.101l0.443,1.232c0.268,0.747,1.068,1.332,1.822,1.332h8.85c0.391,0,0.714-0.154,0.911-0.436   c0.207-0.294,0.243-0.695,0.098-1.1L372.757,221.875z M372.612,223.862c-0.105,0.149-0.287,0.181-0.421,0.181h-8.85   c-0.5,0-1.076-0.429-1.258-0.936l-0.443-1.232c-0.078-0.218-0.069-0.42,0.023-0.552c0.104-0.149,0.286-0.181,0.42-0.181h8.85   c0.5,0,1.077,0.429,1.259,0.936l0.443,1.232C372.714,223.528,372.705,223.729,372.612,223.862z"/><path d="M60.9,239.474c-0.299-2.236-2.021-4.057-3.846-4.057c-0.77,0.002-1.479,0.331-2,0.927   c-0.693,0.793-0.995,1.969-0.828,3.225c0.299,2.237,2.021,4.058,3.838,4.058h0.007c0.77-0.002,1.48-0.331,2.001-0.928   C60.766,241.904,61.067,240.729,60.9,239.474z M58.069,243.026l-0.005,0.3v-0.3c-1.527,0-2.982-1.587-3.243-3.537   c-0.145-1.085,0.105-2.087,0.686-2.751c0.411-0.471,0.946-0.72,1.555-0.722c1.528,0,2.983,1.587,3.244,3.537   c0.145,1.084-0.105,2.086-0.686,2.75C59.209,242.775,58.673,243.024,58.069,243.026z"/><path d="M110.323,224.921c-10.926,0-19.814,8.89-19.814,19.817c0,10.927,8.889,19.815,19.814,19.815   c10.928,0,19.817-8.889,19.817-19.815C130.141,233.811,121.251,224.921,110.323,224.921z M110.323,263.554   c-10.374,0-18.814-8.44-18.814-18.815c0-10.376,8.44-18.817,18.814-18.817c10.376,0,18.817,8.441,18.817,18.817   C129.141,255.113,120.699,263.554,110.323,263.554z"/><path d="M112.813,244.737c0-1.371-1.116-2.486-2.489-2.486c-1.371,0-2.486,1.115-2.486,2.486s1.115,2.487,2.486,2.487   C111.696,247.225,112.813,246.108,112.813,244.737z M110.323,246.826c-1.151,0-2.088-0.938-2.088-2.089s0.937-2.088,2.088-2.088   c1.153,0,2.091,0.937,2.091,2.088S111.477,246.826,110.323,246.826z"/><path d="M108.699,237.101c0.021,0.045,0.536,1.094,1.626,1.094c1.089,0,1.604-1.049,1.615-1.075   c0.033-0.059,3.266-5.872,3.972-7.069c0.341-0.581,0.276-1.042,0.161-1.326c-0.314-0.78-1.283-1.071-1.392-1.102   c-2.459-0.688-6.256-0.688-8.713,0c-0.109,0.03-1.077,0.32-1.393,1.102c-0.115,0.284-0.18,0.745,0.162,1.326   C105.443,231.247,108.676,237.061,108.699,237.101z M105.226,228.985c0.16-0.397,0.727-0.632,0.932-0.689   c1.17-0.327,2.689-0.516,4.169-0.516c1.478,0,2.996,0.188,4.167,0.516c0.204,0.058,0.771,0.293,0.932,0.689   c0.082,0.205,0.044,0.437-0.116,0.709c-0.71,1.205-3.947,7.026-3.989,7.104c-0.004,0.007-0.342,0.697-0.994,0.697   c-0.646,0-0.992-0.691-1.005-0.716c-0.032-0.059-3.27-5.88-3.979-7.085C105.181,229.422,105.143,229.189,105.226,228.985z"/><path d="M111.76,240.204c0-0.792-0.644-1.436-1.436-1.436s-1.436,0.644-1.436,1.436s0.644,1.436,1.436,1.436   S111.76,240.996,111.76,240.204z M109.098,240.204c0-0.676,0.551-1.227,1.227-1.227s1.227,0.551,1.227,1.227   s-0.551,1.227-1.227,1.227S109.098,240.88,109.098,240.204z"/><rect x="99.822" y="232.825" transform="matrix(0.5188 0.8549 -0.8549 0.5188 249.0643 23.8935)" width="6.975" height="0.699"/><path d="M94.81,242.231l0.254-0.001c1.801,0,7.794,0.097,7.834,0.097c0.009,0.001,0.091,0.003,0.1,0.003   c0.272,0,1.197-0.062,1.659-0.865c0.545-0.942-0.104-1.912-0.121-1.936c-0.034-0.058-3.452-5.765-4.138-6.976   c-0.382-0.674-0.895-0.815-1.257-0.815c-0.757,0-1.391,0.601-1.46,0.669c-0.911,0.89-1.877,2.166-2.648,3.502   c-0.771,1.334-1.394,2.808-1.709,4.043c-0.028,0.11-0.26,1.092,0.255,1.754C93.765,241.946,94.126,242.231,94.81,242.231z    M94.001,240.126c0.301-1.177,0.897-2.587,1.638-3.868c0.741-1.282,1.663-2.503,2.531-3.351c0.192-0.188,0.609-0.469,0.971-0.469   c0.26,0,0.472,0.15,0.647,0.461c0.689,1.218,4.112,6.932,4.157,7.006c0.004,0.006,0.428,0.651,0.104,1.21   c-0.274,0.479-0.875,0.516-1.053,0.516v0.35l-0.067-0.352c-0.061-0.001-6.06-0.098-7.866-0.098l-0.273,0.001   c-0.31,0-0.525-0.084-0.659-0.256C93.869,240.939,93.948,240.332,94.001,240.126z"/><path d="M107.116,241.228c-0.219-0.126-0.467-0.192-0.717-0.192c-0.513,0-0.989,0.275-1.245,0.718   c-0.191,0.333-0.242,0.72-0.143,1.09c0.099,0.371,0.336,0.681,0.668,0.872c0.218,0.126,0.466,0.192,0.717,0.192   c0.512,0,0.988-0.275,1.245-0.718C108.037,242.503,107.801,241.624,107.116,241.228z M107.46,243.084   c-0.219,0.379-0.626,0.614-1.063,0.614c-0.214,0-0.426-0.057-0.611-0.165c-0.284-0.163-0.487-0.428-0.572-0.744   c-0.084-0.316-0.041-0.647,0.123-0.931c0.218-0.379,0.625-0.614,1.063-0.614c0.214,0,0.426,0.058,0.611,0.165   C107.597,241.747,107.798,242.499,107.46,243.084z"/><rect x="93.375" y="244.388" width="6.911" height="0.699"/><path d="M104.656,248.01c-0.464-0.804-1.358-0.886-1.738-0.863c-0.061,0.001-6.055,0.097-7.855,0.098l-0.273-0.001   c-0.664,0-1.025,0.285-1.212,0.525c-0.515,0.662-0.283,1.644-0.255,1.754c0.317,1.239,0.94,2.714,1.71,4.044   c0.77,1.333,1.734,2.609,2.646,3.501c0.069,0.068,0.703,0.67,1.461,0.67c0.362,0,0.875-0.143,1.257-0.816   c0.686-1.209,4.104-6.917,4.127-6.957C104.552,249.923,105.201,248.952,104.656,248.01z M103.935,249.587   c-0.035,0.058-3.458,5.772-4.147,6.988c-0.176,0.311-0.388,0.462-0.647,0.462c-0.362,0-0.778-0.28-0.971-0.47   c-0.869-0.85-1.792-2.071-2.532-3.352c-0.737-1.278-1.334-2.688-1.637-3.867c-0.053-0.206-0.132-0.813,0.13-1.15   c0.134-0.172,0.349-0.256,0.673-0.256l0.26,0.001c1.807,0,7.807-0.097,7.935-0.1c0.178,0,0.777,0.037,1.053,0.517   C104.372,248.918,103.948,249.564,103.935,249.587z"/><path d="M106.396,245.569c-0.251,0-0.498,0.066-0.717,0.192c-0.332,0.191-0.569,0.501-0.668,0.872   c-0.1,0.37-0.049,0.757,0.143,1.09c0.256,0.442,0.733,0.718,1.245,0.718c0.251,0,0.498-0.066,0.717-0.192   c0.685-0.396,0.92-1.276,0.525-1.962C107.386,245.845,106.908,245.569,106.396,245.569z M107.011,248.067   c-0.186,0.107-0.397,0.164-0.611,0.164c-0.438,0-0.846-0.234-1.063-0.613c-0.164-0.283-0.207-0.614-0.123-0.931   c0.085-0.316,0.288-0.581,0.572-0.744c0.186-0.107,0.397-0.165,0.611-0.165c0.438,0,0.845,0.235,1.063,0.614   C107.798,246.978,107.597,247.729,107.011,248.067z"/><rect x="100.33" y="256.246" transform="matrix(0.4811 -0.8767 0.8767 0.4811 -171.0771 224.1582)" width="6.974" height="0.699"/><path d="M111.949,252.375c-0.021-0.045-0.536-1.093-1.626-1.093s-1.604,1.048-1.616,1.074c-0.033,0.059-3.265,5.872-3.971,7.07   c-0.342,0.58-0.276,1.041-0.162,1.325c0.314,0.781,1.282,1.072,1.392,1.103c1.229,0.344,2.817,0.541,4.356,0.541h0.002   c1.539,0,3.127-0.197,4.354-0.541c0.109-0.03,1.077-0.32,1.393-1.102c0.115-0.284,0.181-0.745-0.161-1.326   C115.205,258.229,111.973,252.415,111.949,252.375z M115.423,260.491c-0.16,0.397-0.728,0.632-0.933,0.689   c-1.169,0.327-2.688,0.516-4.166,0.516h-0.002c-1.478,0-2.997-0.188-4.167-0.516c-0.205-0.058-0.772-0.293-0.932-0.69   c-0.082-0.204-0.044-0.436,0.116-0.708c0.71-1.206,3.946-7.027,3.988-7.104c0.004-0.007,0.341-0.696,0.995-0.696   c0.646,0,0.992,0.69,1.005,0.715c0.032,0.059,3.27,5.88,3.979,7.086C115.467,260.055,115.505,260.287,115.423,260.491z"/><path d="M108.889,249.272c0,0.791,0.644,1.435,1.436,1.436c0.792-0.001,1.436-0.646,1.436-1.437s-0.644-1.435-1.436-1.436   C109.532,247.837,108.889,248.481,108.889,249.272z M111.551,249.271c0,0.676-0.55,1.227-1.227,1.228   c-0.677-0.001-1.227-0.551-1.227-1.227s0.551-1.227,1.227-1.228C111,248.046,111.551,248.596,111.551,249.271z"/><rect x="113.852" y="255.952" transform="matrix(-0.5188 -0.8549 0.8549 -0.5188 -40.9095 489.5751)" width="6.975" height="0.699"/><path d="M125.839,247.245h-0.233c-1.775,0-7.815-0.096-7.855-0.096c-0.009-0.001-0.093-0.004-0.102-0.004   c-0.271,0-1.195,0.063-1.657,0.865c-0.545,0.943,0.104,1.913,0.121,1.937c0.034,0.058,3.453,5.765,4.138,6.975   c0.383,0.675,0.896,0.816,1.258,0.816c0.757,0,1.391-0.601,1.461-0.669c0.912-0.892,1.877-2.168,2.647-3.503   c0.771-1.336,1.395-2.81,1.709-4.042c0.028-0.11,0.26-1.092-0.255-1.754C126.884,247.53,126.522,247.245,125.839,247.245z    M126.647,249.351c-0.3,1.174-0.896,2.583-1.638,3.868c-0.739,1.279-1.662,2.501-2.531,3.351c-0.192,0.188-0.609,0.469-0.971,0.469   c-0.261,0-0.473-0.151-0.648-0.461c-0.688-1.218-4.112-6.932-4.158-7.007c-0.004-0.007-0.431-0.644-0.104-1.21   c0.27-0.466,0.847-0.513,1.104-0.513c0.006,0,0.012,0,0.018,0c0.062,0.001,6.106,0.098,7.888,0.098l0.253-0.001   c0.31,0,0.525,0.084,0.659,0.256C126.779,248.537,126.7,249.145,126.647,249.351z"/><path d="M114.969,245.762c-0.219-0.126-0.467-0.192-0.717-0.192c-0.512,0-0.988,0.275-1.245,0.718   c-0.395,0.686-0.159,1.565,0.525,1.962c0.219,0.125,0.466,0.192,0.716,0.192c0.001,0,0.001,0,0.001,0   c0.512,0,0.989-0.275,1.245-0.719c0.191-0.332,0.242-0.719,0.143-1.089C115.538,246.263,115.301,245.953,114.969,245.762z    M115.313,247.617c-0.218,0.379-0.626,0.614-1.064,0.614c-0.213,0-0.425-0.057-0.61-0.164c-0.585-0.339-0.787-1.09-0.449-1.675   c0.219-0.379,0.626-0.614,1.063-0.614c0.214,0,0.425,0.057,0.611,0.165c0.284,0.163,0.487,0.428,0.572,0.744   C115.52,247.004,115.477,247.334,115.313,247.617z"/><rect x="120.362" y="244.388" width="6.974" height="0.699"/><path d="M115.992,241.467c0.463,0.804,1.387,0.865,1.659,0.865c0.002,0,0.077-0.002,0.079-0.002   c0.061-0.001,6.105-0.098,7.877-0.098h0.251c0.665,0,1.026-0.286,1.213-0.526c0.514-0.661,0.283-1.643,0.255-1.753   c-0.315-1.234-0.938-2.708-1.71-4.044c-0.771-1.334-1.735-2.61-2.646-3.501c-0.07-0.068-0.704-0.669-1.461-0.669   c-0.362,0-0.875,0.142-1.258,0.816c-0.685,1.209-4.103,6.917-4.126,6.957C116.098,239.554,115.447,240.523,115.992,241.467z    M116.714,239.89c0.035-0.058,3.458-5.772,4.146-6.988c0.176-0.311,0.388-0.462,0.648-0.462c0.361,0,0.778,0.28,0.971,0.469   c0.868,0.849,1.791,2.07,2.532,3.352c0.739,1.283,1.336,2.692,1.637,3.867c0.053,0.205,0.132,0.813-0.13,1.15   c-0.134,0.172-0.35,0.256-0.674,0.256l-0.237-0.001c-1.777,0-7.827,0.098-7.907,0.1l-0.049,0.351v-0.35   c-0.178,0-0.777-0.037-1.053-0.516C116.276,240.558,116.699,239.912,116.714,239.89z"/><path d="M115.494,241.752c-0.256-0.442-0.732-0.717-1.245-0.717c-0.251,0-0.499,0.066-0.717,0.192   c-0.332,0.191-0.569,0.501-0.668,0.872c-0.1,0.37-0.049,0.757,0.143,1.09c0.257,0.442,0.733,0.718,1.246,0.718   c0.25,0,0.497-0.066,0.716-0.192C115.653,243.318,115.89,242.438,115.494,241.752z M114.863,243.533   c-0.186,0.107-0.397,0.164-0.61,0.164c-0.438,0-0.846-0.234-1.064-0.613c-0.164-0.283-0.207-0.614-0.123-0.931   c0.085-0.316,0.288-0.581,0.572-0.744c0.186-0.108,0.397-0.165,0.611-0.165c0.438,0,0.846,0.234,1.063,0.613   C115.65,242.442,115.449,243.195,114.863,243.533z"/><rect x="113.344" y="232.532" transform="matrix(-0.481 0.8767 -0.8767 -0.481 377.1979 242.4693)" width="6.974" height="0.699"/><path d="M321.707,224.921c-10.926,0-19.814,8.89-19.814,19.817c0,10.927,8.889,19.815,19.814,19.815   c10.928,0,19.817-8.889,19.817-19.815C341.524,233.811,332.635,224.921,321.707,224.921z M321.707,263.554   c-10.374,0-18.814-8.44-18.814-18.815c0-10.376,8.44-18.817,18.814-18.817c10.376,0,18.817,8.441,18.817,18.817   C340.524,255.113,332.083,263.554,321.707,263.554z"/><path d="M324.196,244.737c0-1.371-1.116-2.486-2.489-2.486c-1.371,0-2.486,1.115-2.486,2.486s1.115,2.487,2.486,2.487   C323.08,247.225,324.196,246.108,324.196,244.737z M321.707,246.826c-1.151,0-2.088-0.938-2.088-2.089s0.937-2.088,2.088-2.088   c1.153,0,2.091,0.937,2.091,2.088S322.86,246.826,321.707,246.826z"/><path d="M320.083,237.101c0.021,0.045,0.536,1.094,1.626,1.094c1.089,0,1.604-1.049,1.615-1.075   c0.033-0.059,3.266-5.872,3.972-7.069c0.341-0.581,0.276-1.042,0.161-1.326c-0.314-0.78-1.283-1.071-1.392-1.102   c-2.459-0.688-6.256-0.688-8.713,0c-0.109,0.03-1.077,0.32-1.393,1.102c-0.115,0.284-0.18,0.745,0.162,1.326   C316.827,231.247,320.06,237.061,320.083,237.101z M316.609,228.985c0.16-0.397,0.727-0.632,0.932-0.689   c1.17-0.327,2.689-0.516,4.169-0.516c1.478,0,2.996,0.188,4.167,0.516c0.204,0.058,0.771,0.293,0.932,0.689   c0.082,0.205,0.044,0.437-0.116,0.709c-0.71,1.205-3.947,7.026-3.989,7.104c-0.004,0.007-0.342,0.697-0.994,0.697   c-0.646,0-0.992-0.691-1.005-0.716c-0.032-0.059-3.27-5.88-3.979-7.085C316.564,229.422,316.526,229.189,316.609,228.985z"/><path d="M323.144,240.204c0-0.792-0.644-1.436-1.436-1.436s-1.436,0.644-1.436,1.436s0.644,1.436,1.436,1.436   S323.144,240.996,323.144,240.204z M320.481,240.204c0-0.676,0.551-1.227,1.227-1.227s1.227,0.551,1.227,1.227   s-0.551,1.227-1.227,1.227S320.481,240.88,320.481,240.204z"/><rect x="311.206" y="232.825" transform="matrix(0.5188 0.8549 -0.8549 0.5188 350.7924 -156.8238)" width="6.975" height="0.699"/><path d="M306.193,242.231l0.254-0.001c1.801,0,7.794,0.097,7.834,0.097c0.009,0.001,0.091,0.003,0.1,0.003   c0.272,0,1.197-0.062,1.659-0.865c0.545-0.942-0.104-1.912-0.121-1.936c-0.034-0.058-3.452-5.765-4.138-6.976   c-0.382-0.674-0.895-0.815-1.257-0.815c-0.757,0-1.391,0.601-1.46,0.669c-0.911,0.89-1.877,2.166-2.648,3.502   c-0.771,1.334-1.394,2.808-1.709,4.043c-0.028,0.11-0.26,1.092,0.255,1.754C305.148,241.946,305.51,242.231,306.193,242.231z    M305.385,240.126c0.301-1.177,0.897-2.587,1.638-3.868c0.741-1.282,1.663-2.503,2.531-3.351c0.192-0.188,0.609-0.469,0.971-0.469   c0.26,0,0.472,0.15,0.647,0.461c0.689,1.218,4.112,6.932,4.157,7.006c0.004,0.006,0.428,0.651,0.104,1.21   c-0.274,0.479-0.875,0.516-1.053,0.516v0.35l-0.067-0.352c-0.061-0.001-6.06-0.098-7.866-0.098l-0.273,0.001   c-0.31,0-0.525-0.084-0.659-0.256C305.253,240.939,305.332,240.332,305.385,240.126z"/><path d="M318.5,241.228c-0.219-0.126-0.467-0.192-0.717-0.192c-0.513,0-0.989,0.275-1.245,0.718   c-0.191,0.333-0.242,0.72-0.143,1.09c0.099,0.371,0.336,0.681,0.668,0.872c0.218,0.126,0.466,0.192,0.717,0.192   c0.512,0,0.988-0.275,1.245-0.718C319.421,242.503,319.185,241.624,318.5,241.228z M318.844,243.084   c-0.219,0.379-0.626,0.614-1.063,0.614c-0.214,0-0.426-0.057-0.611-0.165c-0.284-0.163-0.487-0.428-0.572-0.744   c-0.084-0.316-0.041-0.647,0.123-0.931c0.218-0.379,0.625-0.614,1.063-0.614c0.214,0,0.426,0.058,0.611,0.165   C318.98,241.747,319.182,242.499,318.844,243.084z"/><rect x="304.759" y="244.388" width="6.911" height="0.699"/><path d="M316.04,248.01c-0.464-0.804-1.416-0.886-1.738-0.863c-0.061,0.001-6.055,0.097-7.855,0.098l-0.273-0.001   c-0.664,0-1.025,0.285-1.212,0.525c-0.515,0.662-0.283,1.644-0.255,1.754c0.317,1.239,0.94,2.714,1.71,4.044   c0.77,1.333,1.734,2.609,2.646,3.501c0.069,0.068,0.703,0.67,1.461,0.67c0.362,0,0.875-0.143,1.257-0.816   c0.686-1.209,4.104-6.917,4.127-6.957C315.936,249.923,316.585,248.952,316.04,248.01z M315.318,249.587   c-0.035,0.058-3.458,5.772-4.147,6.988c-0.176,0.311-0.388,0.462-0.647,0.462c-0.362,0-0.778-0.28-0.971-0.47   c-0.869-0.85-1.792-2.071-2.532-3.352c-0.737-1.278-1.334-2.688-1.637-3.867c-0.053-0.206-0.132-0.813,0.13-1.15   c0.134-0.172,0.349-0.256,0.673-0.256l0.26,0.001c1.807,0,7.807-0.097,7.935-0.1c0.178,0,0.777,0.037,1.053,0.517   C315.756,248.918,315.332,249.564,315.318,249.587z"/><path d="M317.78,245.569c-0.251,0-0.498,0.066-0.717,0.192c-0.332,0.191-0.569,0.501-0.668,0.872c-0.1,0.37-0.049,0.757,0.143,1.09   c0.256,0.442,0.733,0.718,1.245,0.718c0.251,0,0.498-0.066,0.717-0.192c0.685-0.396,0.92-1.276,0.525-1.962   C318.77,245.845,318.292,245.569,317.78,245.569z M318.395,248.067c-0.186,0.107-0.397,0.164-0.611,0.164   c-0.438,0-0.846-0.234-1.063-0.613c-0.164-0.283-0.207-0.614-0.123-0.931c0.085-0.316,0.288-0.581,0.572-0.744   c0.186-0.107,0.397-0.165,0.611-0.165c0.438,0,0.845,0.235,1.063,0.614C319.182,246.978,318.98,247.729,318.395,248.067z"/><rect x="311.714" y="256.246" transform="matrix(0.4811 -0.8767 0.8767 0.4811 -61.3915 409.4703)" width="6.974" height="0.699"/><path d="M323.333,252.375c-0.021-0.045-0.536-1.093-1.626-1.093s-1.604,1.048-1.616,1.074c-0.033,0.059-3.265,5.872-3.971,7.07   c-0.342,0.58-0.276,1.041-0.162,1.325c0.314,0.781,1.282,1.072,1.392,1.103c1.229,0.344,2.817,0.541,4.356,0.541h0.002   c1.539,0,3.127-0.197,4.354-0.541c0.109-0.03,1.077-0.32,1.393-1.102c0.115-0.284,0.181-0.745-0.161-1.326   C326.589,258.229,323.356,252.415,323.333,252.375z M326.807,260.491c-0.16,0.397-0.728,0.632-0.933,0.689   c-1.169,0.327-2.688,0.516-4.166,0.516h-0.002c-1.478,0-2.997-0.188-4.167-0.516c-0.205-0.058-0.772-0.293-0.932-0.69   c-0.082-0.204-0.044-0.436,0.116-0.708c0.71-1.206,3.946-7.027,3.988-7.104c0.004-0.007,0.341-0.696,0.995-0.696   c0.646,0,0.992,0.69,1.005,0.715c0.032,0.059,3.27,5.88,3.979,7.086C326.851,260.055,326.889,260.287,326.807,260.491z"/><path d="M320.272,249.272c0,0.791,0.644,1.435,1.436,1.436c0.792-0.001,1.436-0.646,1.436-1.437s-0.644-1.435-1.436-1.436   C320.916,247.837,320.272,248.481,320.272,249.272z M322.935,249.271c0,0.676-0.55,1.227-1.227,1.228   c-0.677-0.001-1.227-0.551-1.227-1.227s0.551-1.227,1.227-1.228C322.384,248.046,322.935,248.596,322.935,249.271z"/><rect x="325.236" y="255.952" transform="matrix(-0.5188 -0.8549 0.8549 -0.5188 280.13 670.2924)" width="6.975" height="0.699"/><path d="M337.223,247.245h-0.233c-1.775,0-7.815-0.096-7.855-0.096c-0.009-0.001-0.093-0.004-0.102-0.004   c-0.271,0-1.195,0.063-1.657,0.865c-0.545,0.943,0.104,1.913,0.121,1.937c0.034,0.058,3.453,5.765,4.138,6.975   c0.383,0.675,0.896,0.816,1.258,0.816c0.757,0,1.391-0.601,1.461-0.669c0.912-0.892,1.877-2.168,2.647-3.503   c0.771-1.336,1.395-2.81,1.709-4.042c0.028-0.11,0.26-1.092-0.255-1.754C338.268,247.53,337.906,247.245,337.223,247.245z    M338.031,249.351c-0.3,1.174-0.896,2.583-1.638,3.868c-0.739,1.279-1.662,2.501-2.531,3.351c-0.192,0.188-0.609,0.469-0.971,0.469   c-0.261,0-0.473-0.151-0.648-0.461c-0.688-1.218-4.112-6.932-4.158-7.007c-0.004-0.007-0.431-0.644-0.104-1.21   c0.27-0.466,0.847-0.513,1.104-0.513c0.006,0,0.012,0,0.018,0c0.062,0.001,6.106,0.098,7.888,0.098l0.253-0.001   c0.31,0,0.525,0.084,0.659,0.256C338.163,248.537,338.084,249.145,338.031,249.351z"/><path d="M326.353,245.762c-0.219-0.126-0.467-0.192-0.717-0.192c-0.512,0-0.988,0.275-1.245,0.718   c-0.395,0.686-0.159,1.565,0.525,1.962c0.219,0.125,0.466,0.192,0.716,0.192c0.001,0,0.001,0,0.001,0   c0.512,0,0.989-0.275,1.245-0.719c0.191-0.332,0.242-0.719,0.143-1.089C326.922,246.263,326.685,245.953,326.353,245.762z    M326.696,247.617c-0.218,0.379-0.626,0.614-1.064,0.614c-0.213,0-0.425-0.057-0.61-0.164c-0.585-0.339-0.787-1.09-0.449-1.675   c0.219-0.379,0.626-0.614,1.063-0.614c0.214,0,0.425,0.057,0.611,0.165c0.284,0.163,0.487,0.428,0.572,0.744   C326.903,247.004,326.86,247.334,326.696,247.617z"/><rect x="331.746" y="244.388" width="6.974" height="0.699"/><path d="M327.376,241.467c0.463,0.804,1.387,0.865,1.659,0.865c0.002,0,0.077-0.002,0.079-0.002   c0.061-0.001,6.105-0.098,7.877-0.098h0.251c0.665,0,1.026-0.286,1.213-0.526c0.514-0.661,0.283-1.643,0.255-1.753   c-0.315-1.234-0.938-2.708-1.71-4.044c-0.771-1.334-1.735-2.61-2.646-3.501c-0.07-0.068-0.704-0.669-1.461-0.669   c-0.362,0-0.875,0.142-1.258,0.816c-0.685,1.209-4.103,6.917-4.126,6.957C327.481,239.554,326.831,240.523,327.376,241.467z    M328.098,239.89c0.035-0.058,3.458-5.772,4.146-6.988c0.176-0.311,0.388-0.462,0.648-0.462c0.361,0,0.778,0.28,0.971,0.469   c0.868,0.849,1.791,2.07,2.532,3.352c0.739,1.283,1.336,2.692,1.637,3.867c0.053,0.205,0.132,0.813-0.13,1.15   c-0.134,0.172-0.35,0.256-0.674,0.256l-0.237-0.001c-1.777,0-7.827,0.098-7.907,0.1l-0.049,0.351v-0.35   c-0.178,0-0.777-0.037-1.053-0.516C327.66,240.558,328.083,239.912,328.098,239.89z"/><path d="M326.878,241.752c-0.256-0.442-0.732-0.717-1.245-0.717c-0.251,0-0.499,0.066-0.717,0.192   c-0.332,0.191-0.569,0.501-0.668,0.872c-0.1,0.37-0.049,0.757,0.143,1.09c0.257,0.442,0.733,0.718,1.246,0.718   c0.25,0,0.497-0.066,0.716-0.192C327.037,243.318,327.273,242.438,326.878,241.752z M326.247,243.533   c-0.186,0.107-0.397,0.164-0.61,0.164c-0.438,0-0.846-0.234-1.064-0.613c-0.164-0.283-0.207-0.614-0.123-0.931   c0.085-0.316,0.288-0.581,0.572-0.744c0.186-0.108,0.397-0.165,0.611-0.165c0.438,0,0.846,0.234,1.063,0.613   C327.034,242.442,326.833,243.195,326.247,243.533z"/><rect x="324.727" y="232.532" transform="matrix(-0.481 0.8767 -0.8767 -0.481 690.2572 57.1447)" width="6.974" height="0.699"/><path d="M384.738,217.116c-0.518-0.602-1.401-0.891-2.521-1.256c-0.828-0.271-1.769-0.579-2.733-1.074   c-2.411-1.236-3.646-3.167-4.239-4.095c-0.272-0.427-0.396-0.621-0.6-0.723l-0.114-0.057l-0.127,0.004   c-0.533,0.021-1.54-0.023-1.96-0.215c-0.251-0.126-1.546-1.22-2.798-2.277c-2.115-1.787-5.003-4.224-6.887-5.478   c-5.885-9.537-16.512-16.585-16.618-16.656l-0.125-0.082h-0.874c-18.662-16.883-39.75-29.425-62.684-37.275   c-29.851-10.22-71.735-7.577-73.503-7.46c-46.321,3.076-91.893,40.624-94.663,42.943c-27.852,1.645-43.104,9.945-51.245,17.239   c-0.024-0.049-0.041-0.101-0.077-0.145c-0.263-0.32-0.735-0.366-1.056-0.104c-2.275,1.866-5.1,5.25-6.568,7.871   c-0.202,0.361-0.073,0.818,0.288,1.021c0.049,0.027,0.104,0.025,0.155,0.041c-0.697,1.2-1.102,2.109-1.3,2.604h-2.225   c-1.263,0-2.102,1.448-2.437,2.689c-1.192,4.415-6.069,6.036-6.644,6.214h-0.217c-2.627,0-3.051,2.049-3.051,6.949   c0,3.202,0.32,4.847,0.379,5.121c0.013,0.119,0.064,0.343,0.242,0.584c0.313,1.308,3.024,12.518,4.33,15.345   c0.007,0.019,0.018,0.036,0.026,0.055c0.019,0.04,0.038,0.085,0.057,0.121c0.002,0.005,0.007,0.006,0.01,0.011   c0.033,0.055,0.071,0.109,0.114,0.167l0.113,0.152l0.022-0.001c0.165,0.134,1.853,1.354,8.834,2.044   c1.47,0.886,2.878,1.335,4.187,1.659c6.123,1.52,16.314,2.51,26.14,2.555c4.261,10.133,14.288,17.267,25.952,17.267   c11.101,0,20.717-6.462,25.293-15.82c2.068-0.035,13.24-0.253,16.627-0.959c4.03-0.841,14.274-0.865,15.429-0.865l5.716,0.004   c15.94,0.014,58.282,0.045,62.38-0.004c3.471-0.046,15.771,0.376,23.91,0.652c3.315,0.112,5.896,0.2,6.819,0.22   c1.275,0.028,5.533,0.172,10.463,0.339c7.07,0.238,15.805,0.534,19.453,0.611c4.575,9.359,14.193,15.822,25.294,15.822   c11.47,0,21.352-6.901,25.729-16.767c0.435,0.006,1.253,0.016,2.327,0.016c3.769,0,10.583-0.117,14.23-0.901   c4.281-0.919,6.195-3.251,6.786-4.142c4.607-1.118,9.333-3.114,11.775-6.675l0.003,0.002c0.595-0.729,0.375-1.227,0.191-1.458   c-0.217-0.273-0.603-0.414-0.973-0.484c-0.087-0.196-0.144-0.434-0.137-0.753c0.039-1.893,0.39-4.07,0.835-5.178   c0.129-0.32,0.322-0.607,0.484-0.816c0.539-0.255,1.012-0.679,1.302-1.419C384.782,232.971,385.96,218.534,384.738,217.116z    M361.146,201.301c-5.198-3.112-13.816-7.166-25.209-8.731l0.019-0.016c-1.782-2.186-3.645-4.3-5.585-6.346h15.344   C346.854,186.979,355.629,193.087,361.146,201.301z M347.781,199.702c0.009-0.226,0.032-0.755,1.204-0.755   c0.187,0,0.397,0.022,0.612,0.051c-0.502,0.207-0.811,0.59-0.834,1.149c-0.089,2.082,3.67,6.174,8.559,9.316   c2.978,1.915,5.762,3.058,7.448,3.058c1.068,0,1.701-0.483,1.738-1.327c0.003-0.077-0.01-0.163-0.017-0.246   c0.408,0.711,0.621,1.318,0.603,1.769c-0.01,0.228-0.036,0.835-1.378,0.835c-1.867,0-4.931-1.209-8.195-3.232   C351.387,206.515,347.688,201.846,347.781,199.702z M365.909,211.169c-0.008,0.186-0.032,0.753-1.139,0.753   c-1.553,0-4.282-1.135-7.124-2.962c-4.568-2.938-8.361-6.961-8.283-8.787c0.008-0.187,0.032-0.754,1.138-0.754   c0.441,0,0.985,0.102,1.593,0.274c1.563,0.602,3.381,1.537,5.252,2.74c2.967,1.907,5.425,4.007,7.131,5.866   C365.402,209.454,365.938,210.472,365.909,211.169z M357.576,201.4c-3.432-2.162-6.627-3.453-8.591-3.453   c-1.923,0-2.182,1.197-2.204,1.712c-0.083,1.945,2.152,5.425,6.48,8.882c-1.113,1.583-2.131,2.804-3.035,3.634   c-10.416-9.377-21.322-11.536-29.139-11.536c-25.912,0-41.967,23.796-42.028,45.893l-4.723-2.943   c0.034-1.592,0.474-12.974,6.063-24.482c5.526-11.377,17.37-25.194,42.413-26.413c4.417-0.219,8.533-0.007,12.354,0.479   c0.004,0.006,0.008,0.011,0.013,0.016l0.015-0.012c9.808,1.249,17.576,4.375,22.908,7.214   C357.987,200.616,357.808,200.964,357.576,201.4z M154.808,251.489v-3.979h124.249v3.979H154.808z M110.288,209.951   c-8.183,0-15.693,2.927-21.544,7.786c-2.695-0.771-5.495-2.024-8.364-3.737c4.015-4.669,13.724-12.945,32.113-12.945   c25.704,0,41.615,23.672,41.615,45.604v4.83h-7.652c-2.263,0-2.395-2.226-2.401-2.467v-5.306   C144.055,225.099,128.907,209.951,110.288,209.951z M43.472,234.458c0.146,0.18,0.359,0.572,0.541,1.455   c0.432,2.098,1.921,10.162,1.931,10.2c0.001,0.009,0.036,0.905-0.51,1.468c-1.146-3.119-3-10.538-3.684-13.332   C42.183,234.375,42.742,234.457,43.472,234.458z M88.211,218.198c-7.152,6.194-11.689,15.328-11.689,25.501   c-0.002,0.053-0.182,5.289-0.226,5.966c-0.034,0.525-0.069,1.068-1.359,1.201c-0.457,0.045-7.387,0.015-11.933-0.018   c-9.208-0.127-13.65-1.019-15.661-1.647c3.667-0.262,11.459-0.843,14.461-1.265c4.507-0.634,7.742-6.859,8.948-12.748   c1.558-7.603,5.522-15.222,7.62-18.525c0.289-0.455,0.822-1.233,1.617-2.199C82.803,216.151,85.553,217.399,88.211,218.198z    M78.628,200.499c1.152,0,1.211,0.639,1.23,0.849c0.199,2.115-3.948,6.991-9.057,10.647c-3.304,2.369-6.458,3.841-8.231,3.841   c-1.155-0.001-1.215-0.64-1.234-0.85c-0.082-0.881,0.599-2.244,1.78-3.797c1.851-2.163,4.444-4.585,7.584-6.834   c1.94-1.389,3.835-2.515,5.502-3.296C77.152,200.698,77.983,200.499,78.628,200.499z M62.57,216.436   c1.921,0,5.129-1.478,8.581-3.952c5.441-3.895,9.528-8.812,9.305-11.191c-0.04-0.433-0.266-1.101-1.185-1.316   c0.398-0.082,0.773-0.139,1.098-0.139c1.236,0,1.294,0.613,1.318,0.874c0.199,2.149-2.972,7.563-10.646,12.87   c-3.762,2.603-7.409,4.22-9.519,4.22c-1.406,0-1.473-0.697-1.497-0.959c-0.054-0.579,0.21-1.395,0.737-2.363   c-0.028,0.199-0.041,0.39-0.025,0.563C60.787,215.563,61.09,216.436,62.57,216.436z M82.684,200.618   c-0.106-1.132-0.95-1.781-2.314-1.781c-2.302,0-6.135,1.76-10.251,4.706c-0.517,0.37-1.018,0.749-1.512,1.133   c-0.729-0.728-1.189-1.214-1.436-1.481c10.177-7.937,25.707-11.936,43.597-11.068c25.029,1.218,36.719,15.175,42.117,26.67   c5.49,11.688,5.781,23.273,5.795,24.809l-3.877,2.865c-0.091-22.215-16.247-46.114-42.31-46.114   c-18.759,0-28.652,8.518-32.715,13.273c-1.271-0.785-2.556-1.657-3.851-2.62C80.578,206.851,82.887,202.812,82.684,200.618z    M133.989,182.523l0.101-0.097c12.878-12.293,26.32-21.699,39.954-27.957l0.506-0.232l-0.428-0.354   c-1.511-1.257-3.072-2.237-3.979-2.771c0.981-0.4,1.972-0.79,2.967-1.174c0.749,0.399,3.161,1.75,5.117,3.564   c-19.251,8.205-34.809,21.122-44.128,30.09l0.002-0.099c-0.614-0.01-13.377-0.199-18.17-0.132c0.295-0.238,0.642-0.518,1.047-0.839   H133.989z M117.864,181.824c7.343-5.754,27.204-20.357,51.462-30.375c0.639,0.359,2.281,1.325,3.916,2.62   c-13.494,6.272-26.792,15.608-39.534,27.755H117.864z M209.022,146.852l1.113-0.077c26.292-1.857,48.954,0.631,67.365,7.385   c24.44,8.966,43.096,21.487,57.015,38.241c-3.652-0.426-7.56-0.608-11.735-0.407c-25.387,1.235-37.4,15.259-43.009,26.806   c-5.496,11.315-6.07,22.529-6.13,24.632H247.76v-54.508c27.944-0.316,51.668-0.616,56.179-0.767   c1.851-0.063,2.992-0.587,3.395-1.56c0.754-1.824-1.533-4.336-1.788-4.607c-24.424-27.377-57.055-33.123-80.127-33.123   c-7.077,0-12.377,0.54-15.225,0.83c-0.509,0.053-0.927,0.095-1.248,0.123c-36.927,3.231-61.68,27.284-68.387,34.579l-0.229,0.246   c-0.881,0.927-1.563,2.409-1.103,3.634c0.262,0.697,0.992,1.566,2.982,1.75l0.025,0.002h0.025c0.184-0.002,2.595-0.025,6.687-0.066   v20.702c-4.84-6.766-12.192-13.255-23.326-16.724C129.251,189.659,164.168,149.83,209.022,146.852z M304.808,182.664   c0.553,0.589,2.033,2.505,1.602,3.551c-0.298,0.719-1.526,0.909-2.504,0.941c-4.505,0.151-28.214,0.451-56.146,0.768v-36.146   C266.718,155.118,287.78,163.579,304.808,182.664z M246.76,187.935c-1.606,0.019-3.224,0.036-4.854,0.055v-35.845l-0.439-0.054   c-14.889-1.83-26.854-0.589-31.357-0.123c-0.472,0.049-0.862,0.09-1.165,0.117c-25.526,2.32-42.685,13.412-53.37,21.553   l-0.197,0.149v4.366c-1.812,1.462-2.65,3.666-2.7,3.799l-0.021,3.537c0,1.436,1.687,2.429,1.758,2.47l0.082,0.047h1.032v0.893   c-7.852,0.079-12.781,0.127-13.251,0.132c-0.81-0.078-1.823-0.333-2.113-1.104c-0.306-0.815,0.248-1.916,0.892-2.593l0.24-0.259   c6.645-7.229,31.169-31.06,67.738-34.26c0.324-0.028,0.747-0.071,1.262-0.124c2.83-0.288,8.097-0.825,15.123-0.825   c6.486,0,13.734,0.46,21.342,1.734V187.935z M174.671,188.704c-0.622-1.276-2.979-6.112-3.274-6.743   c-0.533-1.134-0.677-1.932,0.251-2.404c0.352-0.178,0.67-0.21,0.978-0.096c0.738,0.277,1.156,1.297,1.17,1.329l3.813,7.884   C176.615,188.685,175.636,188.694,174.671,188.704z M178.382,188.666l-3.946-8.158c-0.021-0.053-0.533-1.313-1.562-1.701   c-0.497-0.185-1.016-0.143-1.545,0.127c-1.718,0.875-0.882,2.655-0.537,3.389c0.257,0.549,2.323,4.787,3.104,6.39   c-6.747,0.069-12.75,0.13-17.67,0.18v-0.886h4.362c3.117,0,3.429-2.954,3.433-3.017v-4.25c0-2.437-1.762-3.891-4.714-3.891   c-0.289,0-0.596,0.014-0.917,0.042c-0.751,0.066-1.42,0.288-2.014,0.601v-3.208c10.601-8.052,27.544-18.919,52.657-21.202   c0.307-0.028,0.701-0.069,1.179-0.118c4.43-0.459,16.122-1.671,30.693,0.067v11.158c-2.746,0.922-4.703,4.023-4.703,7.561   c0,3.536,1.957,6.639,4.703,7.561v2.538c-1.492,0.251-6.244,1.431-7.213,6.232C214.582,188.291,194.705,188.499,178.382,188.666z    M156.232,178.405h0.145v-0.095c0.6-0.379,1.289-0.652,2.076-0.723c0.3-0.026,0.585-0.039,0.854-0.039   c2.369,0,3.783,1.012,3.976,2.778c-0.685-0.078-1.982-0.108-2.868,0.604c-0.587,0.473-0.885,1.176-0.885,2.091   c0,0.68,0.19,1.215,0.567,1.591c0.684,0.682,1.854,0.728,3.024,0.728c0.042,0,0.083,0,0.126,0   c-0.179,0.666-0.768,1.966-2.659,1.966h-5.9c-0.292-0.19-1.334-0.927-1.334-1.817v-3.35   C153.506,181.767,154.438,179.618,156.232,178.405z M163.322,181.036l0.001,3.604c-1.103-0.004-2.212-0.004-2.731-0.522   c-0.243-0.242-0.362-0.601-0.362-1.095c0-0.701,0.204-1.206,0.623-1.544C161.586,180.886,162.787,180.964,163.322,181.036z    M240.906,178.225c-2.175-0.917-3.703-3.508-3.703-6.476s1.527-5.559,3.703-6.476V178.225z M240.906,182.854V188   c-2.049,0.023-4.113,0.046-6.188,0.069C235.635,184.143,239.472,183.104,240.906,182.854z M246.76,188.935v54.496h-87.382   c-0.036-2.127-0.481-13.469-5.85-24.91c-1.045-2.227-2.323-4.545-3.882-6.847v-21.717   C166.7,189.787,210.163,189.348,246.76,188.935z M159.146,244.13h114.737l4.301,2.681H155.521L159.146,244.13z M124.572,193.638   c-4.081-1.178-8.646-1.962-13.771-2.211c-20.532-1.007-38.025,4.378-48.004,14.752c-3.694,3.84-5.794,5.249-7.022,5.768   c1.421-0.841,2.403-2.225,3.435-3.477c1.079-1.36,2.238-2.655,3.474-3.874c2.47-2.438,5.224-4.581,8.16-6.425   c5.879-3.696,12.423-6.227,19.122-7.981c6.711-1.748,13.606-2.731,20.521-3.186c6.647-0.414,13.344-0.396,19.963,0.211   C126.922,190.827,124.875,193.272,124.572,193.638z M329.388,185.208c-13.172-13.54-29.961-23.995-51.039-31.796l4.092-4.425   c2.113,0.728,4.207,1.506,6.288,2.313c-0.514,0.666-1.348,1.756-1.543,2.074c-0.263,0.43-0.333,0.869-0.209,1.306   c0.208,0.729,0.945,1.39,2.32,2.08c0.273,0.137,0.722,0.346,1.323,0.626c15.599,7.277,28.334,15.659,37.847,24.905   c0.232,0.233,2.314,2.28,4.105,2.28h10.343c0.239,0.212,0.479,0.422,0.719,0.636H329.388z M289.702,151.677   c18.815,7.434,36.29,18.133,52.083,31.896h-9.213c-1.167,0-2.847-1.433-3.401-1.991c-9.6-9.331-22.428-17.775-38.128-25.1   c-0.59-0.275-1.029-0.48-1.297-0.615c-1.342-0.673-1.724-1.165-1.808-1.46c-0.031-0.109-0.048-0.267,0.101-0.509   C288.202,153.63,289.055,152.511,289.702,151.677z M209.022,141.471c1.746-0.116,42.769-2.702,72.382,7.163l-4.075,4.407   c-18.451-6.662-41.069-9.107-67.264-7.265l-1.109,0.077c-10.548,0.7-20.546,3.419-29.727,7.228   c-1.668-1.635-3.701-2.922-4.898-3.609C185.374,145.319,197.176,142.258,209.022,141.471z M114.518,184.404h0.004l0,0   c2.146-0.142,15.113,0.027,18.662,0.077c-0.744,0.727-1.447,1.426-2.102,2.088c-6.875-0.608-13.768-0.573-20.632-0.089   c-6.938,0.514-13.853,1.56-20.576,3.371c-6.709,1.817-13.258,4.414-19.125,8.172c-2.931,1.874-5.675,4.046-8.128,6.51   c-1.228,1.231-2.378,2.539-3.446,3.909c-1.024,1.266-1.994,2.658-3.413,3.509c-0.083,0.034-0.16,0.063-0.234,0.091   C57.173,208.148,68.193,187.09,114.518,184.404z M42.969,221.847h5.723l24.691-0.5l-24.691-0.5H45.72   c1.841-0.991,4.23-2.828,5.074-5.954c0.256-0.944,0.857-1.949,1.472-1.949h2.086l0.001,0.006c0.848,0.018,2.862,0.041,8.948-6.286   c1.047-1.089,2.196-2.109,3.407-3.084c0.241,0.262,0.69,0.739,1.423,1.471c-5.459,4.344-9.336,9.32-9.101,11.885   c0.112,1.186,1.021,1.866,2.492,1.866c0.001,0,0,0,0.001,0c2.337,0,6.108-1.645,10.087-4.397c1.421-0.982,2.708-1.985,3.86-2.984   c1.318,0.983,2.624,1.872,3.918,2.674c-0.787,0.963-1.318,1.738-1.608,2.195c-2.122,3.344-6.136,11.058-7.714,18.76   c-1.368,6.681-4.807,11.695-8.36,12.195c-3.466,0.487-13.389,1.189-15.821,1.359c-0.022-0.015-0.033-0.022-0.038-0.025   c-0.001-0.002-0.001-0.005-0.002-0.007c-0.04-0.079-0.082-0.169-0.126-0.269c0.053-0.061,0.111-0.127,0.196-0.212   c0.79-0.789,0.73-1.968,0.722-2.061c-0.015-0.081-1.505-8.153-1.938-10.257c-0.112-0.545-0.249-0.978-0.411-1.314h3.218   c-0.368,0.457-0.604,1.074-0.477,1.9c0.291,1.869,1.298,6.382,1.357,6.633c0.197,0.547,0.29,1.229,0.192,1.358l-1.001-0.001   c-0.001,0-0.001,0-0.001,0c-0.275,0-0.5,0.224-0.5,0.499c0,0.276,0.224,0.501,0.499,0.501l1.001,0.001v0.001   c0.001,0,0.002,0,0.002,0c0.001,0,0.002-0.001,0.004-0.001l3.994,0.005l6.971,0.006c0.688,0,1.728,0,2.468-0.79   c0.772-0.824,1.061-2.317,0.906-4.697c-0.342-5.263-5.123-6.415-6.937-6.415H43.48c-1.267,0-1.842-0.262-2.066-0.455   c-0.025-0.039-0.058-0.07-0.092-0.101c-0.015-0.022-0.025-0.044-0.029-0.06l-0.013-0.112c-0.004-0.016-0.362-1.618-0.362-4.935   C40.918,222.123,41.659,221.847,42.969,221.847z M52.578,244.354l-2.979-0.004c0.076-0.646-0.168-1.406-0.254-1.638   c-0.011-0.046-1.042-4.671-1.328-6.509c-0.2-1.288,0.984-1.678,1.241-1.746h6.727c1.553,0,5.646,0.984,5.938,5.479   c0.132,2.028-0.083,3.357-0.638,3.949c-0.411,0.438-1.005,0.474-1.738,0.474L52.578,244.354z M110.324,271.875   c-14.964,0-27.139-12.174-27.139-27.138c0-14.963,12.175-27.137,27.139-27.137s27.138,12.174,27.138,27.137   C137.462,259.701,125.288,271.875,110.324,271.875z M321.708,271.875c-14.964,0-27.139-12.174-27.139-27.138   c0-14.963,12.175-27.137,27.139-27.137s27.138,12.174,27.138,27.137C348.846,259.701,336.672,271.875,321.708,271.875z    M363.849,254.539c-4.357,0.935-13.639,0.897-16.111,0.872c1.355-3.294,2.108-6.896,2.108-10.674   c0-15.515-12.622-28.137-28.138-28.137s-28.139,12.622-28.139,28.137c0,4.139,0.905,8.066,2.517,11.608   c-3.83-0.089-12.252-0.373-19.102-0.604c-4.932-0.166-9.191-0.311-10.471-0.338c-0.923-0.021-3.5-0.108-6.812-0.221   c-8.146-0.275-20.449-0.687-23.941-0.651c-4.095,0.049-46.433,0.016-62.371,0.004l-5.717-0.004c-1.896,0-11.558,0.042-15.571,0.879   c-3.128,0.652-13.45,0.888-16.157,0.938c1.612-3.543,2.518-7.472,2.518-11.611c0-15.515-12.622-28.137-28.138-28.137   s-28.139,12.622-28.139,28.137c0,3.586,0.682,7.014,1.91,10.17c-9.686-0.063-19.68-1.041-25.695-2.533   c-0.803-0.199-1.646-0.454-2.512-0.82c1.99,0.149,4.337,0.257,7.104,0.295c1.164,0.009,11.393,0.079,12.045,0.012   c1.89-0.193,2.198-1.24,2.256-2.131c0.045-0.691,0.22-5.779,0.228-6.013c0-18.067,14.699-32.766,32.767-32.766   s32.767,14.698,32.767,32.766v5.317c0.027,1.194,0.773,3.455,3.401,3.455h140.008c1.703,0,2.238-1.037,2.285-1.626v-6.014   c0-18.222,14.825-33.046,33.047-33.046s33.047,14.824,33.047,33.046v3.739c0,2.524,1.391,3.914,3.896,3.914   c0.01,0,0.065,0.001,0.164,0.001c0.933,0,5.665-0.069,10.793-1.173C368.826,252.323,367.034,253.854,363.849,254.539z    M358.758,251.503c-1.962,0-2.915-0.953-2.915-2.914v-3.739c0-18.773-15.273-34.046-34.047-34.046s-34.047,15.272-34.047,34.046   l0.002,5.973c-0.001,0.007-0.069,0.667-1.287,0.667h-6.708v-4.83c0-21.796,15.803-45.321,41.332-45.321   c9.032,0,22.262,2.929,33.994,16.878l0.155,0.185c2.642,3.132,6.144,9.721,7.592,16.788c1.271,6.208,3.289,8.629,7.711,9.251   c3.19,0.448,8.52,0.196,10.694,0.065C375.407,251.583,358.922,251.509,358.758,251.503z M381.826,236.273   c-0.479,1.195-0.844,3.427-0.884,5.426c-0.005,0.265,0.029,0.492,0.078,0.707c-1.742,0.016-4.034,0.029-5.614,0.027   c-0.591-0.226-1.304-0.891-1.879-2.876c-0.564-1.948-0.319-2.831-0.015-3.228c0.083-0.109,0.175-0.184,0.265-0.24h6.77   c0.436,0,0.927-0.005,1.412-0.077C381.914,236.101,381.863,236.18,381.826,236.273z M372.855,239.753   c0.388,1.337,0.853,2.162,1.322,2.673c-0.3-0.004-0.504-0.01-0.575-0.018c-0.086-0.009-0.192-0.009-0.306-0.009   c-0.592,0.025-1.68,0.017-2.521-2.884c-0.574-1.98-0.274-2.786-0.044-3.09c0.252-0.333,0.615-0.364,0.647-0.336h1.485   C372.391,236.87,372.371,238.085,372.855,239.753z M383.331,233.935c-0.42,1.075-1.375,1.155-2.784,1.155h-9.146   c-0.319-0.004-0.984,0.118-1.444,0.704c-0.631,0.803-0.679,2.148-0.142,4.001c0.928,3.201,2.261,3.655,3.492,3.604   c0.073,0,0.133-0.003,0.184,0.003c0.517,0.058,5.642,0.019,7.226,0.006l0.001,0.005l0.401-0.008   c0.346-0.021,0.764,0.077,0.826,0.102c0,0-0.022,0.079-0.131,0.227l-0.003-0.002c-0.009,0.013-0.019,0.024-0.027,0.037   c-1.55,0.1-7.726,0.457-11.146-0.022c-3.483-0.489-5.766-2.07-7.123-8.698c-1.473-7.188-5.046-13.901-7.742-17.099l-0.155-0.184   c-1.625-1.933-3.279-3.649-4.946-5.186c0.921-0.854,1.948-2.084,3.063-3.668c0.987,0.761,2.071,1.52,3.261,2.257   c3.467,2.149,6.646,3.383,8.723,3.383c2.075,0,2.354-1.253,2.378-1.793c0.114-2.771-4.966-7.749-10.012-11.036   c0.241-0.452,0.426-0.811,0.547-1.048c1.349,0.735,2.552,1.448,3.56,2.093l0,0c1.835,1.219,4.708,3.644,6.812,5.421   c1.948,1.645,2.714,2.28,3.026,2.422c0.619,0.282,1.693,0.317,2.177,0.31c0.054,0.079,0.118,0.185,0.199,0.311   c0.64,1.002,1.973,3.086,4.624,4.446c1.036,0.531,2.016,0.852,2.88,1.134c0.872,0.285,1.616,0.538,1.98,0.881l-25.834,0.483   l26.125,0.488C384.531,221.954,383.875,232.544,383.331,233.935z"/><path d="M358.976,205.8c-0.459,0-0.743,0.223-0.76,0.597c-0.038,0.933,1.682,2.61,3.365,3.692c1.169,0.752,2.268,1.2,2.938,1.2   c0.459,0,0.742-0.223,0.759-0.596c0.039-0.933-1.679-2.609-3.362-3.692C360.745,206.249,359.646,205.8,358.976,205.8z    M364.877,210.676c-0.003,0.069-0.009,0.214-0.358,0.214c-0.588,0-1.63-0.436-2.721-1.137c-1.935-1.243-3.207-2.731-3.182-3.34   c0.003-0.069,0.009-0.213,0.359-0.213c0.588,0,1.632,0.436,2.723,1.137C363.632,208.581,364.903,210.067,364.877,210.676z"/></g><text x="0" y="440.197" fill="#000000" font-size="5px" font-weight="bold" font-family="'Helvetica Neue', Helvetica, Arial-Unicode, Arial, Sans-serif">Created by John Burraco</text><text x="0" y="445.197" fill="#000000" font-size="5px" font-weight="bold" font-family="'Helvetica Neue', Helvetica, Arial-Unicode, Arial, Sans-serif">from the Noun Project</text></svg>