<svg xmlns="http://www.w3.org/2000/svg" xmlns:xlink="http://www.w3.org/1999/xlink"  version="1.1" x="0px" y="0px" viewBox="0 0 425.197 531.49625" enable-background="new 0 0 425.197 425.197" xml:space="preserve"><g transform="scale(-1 1) translate(-400 0)"><path d="M287.353,171.834c-7.306-10.923-34.184-16.74-50.846-16.741c-0.529,0-5.17,0.148-5.17,5.286l0.001,22.62   c0.002,0.043,0.257,4.3,5.474,4.3h44.637c3.336,0,5.923-1.403,7.283-3.951C290.438,180.156,289.896,175.637,287.353,171.834z    M287.409,182.642c-1.104,2.065-3.165,3.157-5.961,3.157h-44.637c-3.693,0-3.958-2.58-3.975-2.834v-22.586   c0-3.507,2.799-3.785,3.733-3.785c0.002,0,0.003,0,0.005,0c16.258,0,42.516,5.586,49.531,16.074   C288.346,176.016,288.856,179.931,287.409,182.642z"/><path d="M162.013,187.581l56.273-0.001c0.204,0,0.415,0.004,0.632,0.008c0.236,0.004,0.479,0.009,0.724,0.009   c2.716,0,5.832-0.723,5.832-6.353v-21.09c0.001-0.094,0.008-2.312-1.51-3.846c-0.919-0.93-2.173-1.4-3.727-1.4   c-20.626,0-31.786,1.231-37.517,2.264l-0.495,0.088c-2.79,0.493-8.597,1.519-12.536,4.396c-3.104,2.269-7.003,9.093-10.135,14.577   c-0.773,1.353-1.482,2.595-2.097,3.617c-1.08,1.801-1.2,3.631-0.339,5.153C158.02,186.594,159.895,187.581,162.013,187.581z    M169.756,184.848l-1.181-2.19l-2.724-5.053c-0.262-0.486-0.866-0.67-1.354-0.405c-0.486,0.262-0.668,0.868-0.405,1.354   l2.724,5.053l0.669,1.241h-5.472c-1.135,0-2.099-0.456-2.514-1.189c-0.355-0.629-0.248-1.482,0.303-2.401   c0.623-1.036,1.342-2.296,2.135-3.684c2.842-4.976,6.734-11.789,9.365-13.711c2.066-1.509,5.113-2.656,9.277-3.508l-4.879,24.493   H169.756z M181.581,158.899c0.209-0.038,0.405-0.073,0.592-0.106l-5.436,27.288h-0.57L181.581,158.899z M222.89,157.355   c1.077,1.081,1.084,2.768,1.084,2.79v21.099c0,4.481-2.049,4.853-4.332,4.853c-0.236,0-0.469-0.005-0.697-0.009   c-0.226-0.004-0.445-0.008-0.658-0.008l-40.836,0.001l5.462-27.419l0.074-0.014c5.67-1.022,16.735-2.24,37.251-2.24   C221.371,156.408,222.264,156.727,222.89,157.355z M158.744,180.622c0.619-1.029,1.334-2.281,2.112-3.645   c2.9-5.077,6.873-12.031,9.718-14.11c3.02-2.206,7.342-3.261,10.267-3.828l-0.05,0.249c-4.522,0.889-7.825,2.121-10.079,3.768   c-2.804,2.047-6.757,8.968-9.645,14.021c-0.787,1.38-1.504,2.634-2.123,3.665c-0.744,1.242-0.856,2.452-0.315,3.408   c0.593,1.047,1.889,1.697,3.384,1.697h13.488l-0.047,0.233h-13.441c-1.579,0-2.953-0.696-3.588-1.816   C157.841,183.233,157.954,181.939,158.744,180.622z"/><path d="M384.866,246.021h-14.949c0.323-0.635,0.436-1.5,0.098-2.392c0.489-0.94,0.77-1.796,0.897-2.256l3.4-0.009   c0.104,1.57,1.112,2.376,3.022,2.376c1.73,0,3.041-0.425,4.149-2.376l1.393-0.003c0.944-0.004,1.68-0.298,2.188-0.871   c0.642-0.725,0.876-1.855,0.698-3.363c-0.067-0.579-0.373-2.111-0.975-2.696v-4.341c0-2.133-0.851-3.382-1.564-4.054   c-0.702-0.66-1.494-0.992-2.148-1.167c0.043-0.421,0.074-0.866,0.074-1.369c0-2.457-2.787-4.19-4.014-4.297   c-1.114-0.099-1.596,0.812-1.7,1.304c-0.007,0.034-0.011,0.069-0.011,0.104l0.001,4.063h-9.45l-0.146-0.003   c-0.322,0-1.161,0.048-2.079,0.426c-2.266-5.743-5.059-11.484-8.306-17.082c0.767-0.386,1.625-0.844,2.462-1.299l0.233-0.127   c0.191-0.104,0.316-0.281,0.352-0.499c0.14-0.864-1.283-2.455-1.723-2.923l-0.125-0.085c-0.923-0.369-3.276-0.812-4.829-0.981   c-6.769-10.403-14.841-19.79-24.1-28.069c0.051-0.309-0.093-0.62-0.386-0.774c-0.173-0.091-0.366-0.103-0.544-0.052   c-4.747-4.172-9.795-8.06-15.144-11.64c-4.463-2.987-8.746-5.571-12.925-7.814c-0.001-0.234-0.099-0.464-0.305-0.609   c-0.264-0.184-0.601-0.173-0.852-0.002c-21.014-11.009-39.504-13.287-64.861-13.287c-52.261,0-64.711,9.609-65.216,10.019   l0.007,0.008c-0.023,0.019-0.051,0.031-0.07,0.055c-1.396,1.622-12.096,19.988-14.462,24.059c-0.125-0.148-0.27-0.242-0.439-0.242   h-0.198h-0.43h-0.198c-0.81,0-1.086,1.888-1.172,3.613h-2.67c-0.641,0-1.162,0.521-1.162,1.162c0,0.252,0.098,0.473,0.234,0.664   c-2.58-0.009-5.108,0.02-7.593,0.078l-0.023-0.813l-7.739,0.227l0.025,0.881c-39.922,2.178-66.512,13.822-80.924,35.377   c-0.03-0.017-0.054-0.039-0.087-0.051c-0.072-0.022-0.732-0.23-1.625,0.085c-0.829,0.295-2.124,1.173-3.58,3.678   c-1.288,2.222-1.786,4.08-1.521,5.68c0.043,0.259,0.134,0.476,0.252,0.659c-0.986-0.451-1.918-0.509-2.262-0.509l-4.498,0.003   l0.001-4.063c0-0.034-0.004-0.069-0.011-0.104c-0.104-0.492-0.59-1.398-1.7-1.304c-1.227,0.106-4.014,1.84-4.014,4.297   c0,0.421,0.019,0.81,0.05,1.173h-0.318c-0.965,0-1.75,0.785-1.75,1.75s0.785,1.75,1.75,1.75h0.995   c0.307,1.41,0.365,2.713-0.728,5.224c-0.704,1.616-1.718,5.294-0.521,7.646c1.146,2.247,2.509,2.698,4.336,2.698   c1.91,0,2.917-0.805,3.022-2.374l3.75,0.018c-0.201,3.92-0.064,5.698,0.012,6.656c0.015,0.182,0.027,0.33,0.033,0.456   c0.086,1.854,0.757,2.41,2.029,2.516c-0.001,0.011,0.005,0.02,0.004,0.03c0.051,1.506,0.859,1.948,2.328,2.207   c2.15,0.379,10.495,0.175,10.771,0.162c0.377,0.05,8.749,1.162,10.962,1.283c4.038,10.593,14.297,18.141,26.291,18.141   c12.102,0,22.441-7.682,26.403-18.425l50.744-0.101c5.857,0.691,14.497,1.553,22.397,1.73c14.826,0.333,56.796,1.332,56.812,1.332   c0.029,0.002,0.169,0.01,0.384,0.01c1.072,0,4.022-0.203,4.473-2.409c0.038-0.188,0.075-0.409,0.115-0.659h20.533   c3.936,10.793,14.301,18.521,26.438,18.521c12.736,0,23.517-8.511,26.968-20.143l23.886-0.237l9.903-2.013h21.168   c0.276,0,0.5-0.224,0.5-0.5v-3.232C385.366,246.244,385.143,246.021,384.866,246.021z M260.719,244.505   c-0.027-0.04-0.068-0.063-0.104-0.094c0.616-29.393,22.051-47.573,41.652-47.573c12.999,0,22.105,3.806,34.431,14.435   c-0.022,0.027-0.052,0.053-0.065,0.083c-0.079,0.175-0.227,0.501,1.049,2.669c0.918,1.563,7.788,12.452,11.229,14.756   c0.031,0.021,0.786,0.531,1.552,0.531c0.439,0,0.813-0.167,1.081-0.482c0.161-0.189,0.321-0.51,0.313-1.253   c0.717-0.076,1.189-0.344,1.211-0.358c0.058-0.036,0.099-0.089,0.129-0.148c0.918,1.171,2.779,3.632,4.529,6.012l-1.971,0.005   c-0.978,0.005-1.746,0.315-2.284,0.923c-0.655,0.741-0.913,1.887-0.745,3.313c0.302,2.563,1.75,4.092,3.875,4.092   c0.007,0,0.014,0,0.021,0l6.743-0.019c0.488,0.827,0.911,1.593,1.239,2.261c0.435,0.887,0.975,2.133,0.649,2.717   c-0.145,0.259-0.504,0.419-1.069,0.476c-2.589,0.253-25.467,2.095-31.188-12.331c-4.77-12.027-13.721-19.602-25.203-21.327   c-10.947-1.65-22.3,2.612-28.903,10.851c-7.269,9.064-8.204,13.62-9.232,20.892c-0.622,4.395-6.02,4.949-7.686,5.013v-2.193   C261.972,246.362,260.771,244.58,260.719,244.505z M141.955,248.452v1.493l-9.15,0.001c-0.21,0.021-5.122,0.285-6.055-5.492   l-0.32-2.024c-0.981-6.257-1.429-9.111-5.469-15.625c-5.263-8.485-15.814-13.968-26.884-13.968   c-10.997,0-21.674,6.344-27.21,16.177c-4.798,9.257-7.267,11.256-11.002,14.28c-0.449,0.363-0.915,0.741-1.404,1.146   c-3.545,2.937-7.408,4.861-9.053,5.613c0.247-1.527,0.873-4.885,2.112-8.834l0.702,0.004c0.007,0,0.014,0,0.021,0   c2.126,0,3.574-1.528,3.876-4.092c0.168-1.426-0.09-2.571-0.745-3.313c-0.348-0.393-0.801-0.647-1.335-0.789   c0.878-2.52,1.796-4.821,2.734-6.852c0.001-0.002,0.003-0.002,0.004-0.004c4.692-10.598,11.134-18.76,12.739-20.714   c5.738-1.71,17.596-5.227,32.161-5.227c0.016,0,0.029,0,0.045,0c14.166,0,25.991,5.583,35.143,16.594   c6.634,7.983,11.794,21.182,11.987,27.578C143.765,244.675,141.955,245.554,141.955,248.452z M36.088,239.638   c-0.438-0.494-0.596-1.388-0.455-2.583c0.251-2.13,1.173-3.21,2.74-3.21c0.006,0,0.011,0,0.017,0l5.081,0.024v1.864   c0,0.152,0.098,0.287,0.243,0.333c0.031,0.011,0.119,0.033,0.262,0.033c0.24,0,0.644-0.065,1.204-0.379   c0.857-0.479,1.696-1.722,1.732-1.774c0.012-0.018,0.01-0.041,0.019-0.061l2.155,0.011c0.68,0.003,1.198,0.2,1.539,0.586   c0.583,0.659,0.595,1.741,0.502,2.532c-0.142,1.2-0.704,3.209-2.884,3.209c-0.005,0-0.011,0-0.017,0l-10.696-0.052   C36.875,240.169,36.403,239.994,36.088,239.638z M43.471,232.869l-5.01-0.024c-0.068-0.93-0.3-1.42-0.527-1.891   c-0.283-0.588-0.575-1.2-0.583-2.973l4.368-0.011c0.024,0.006,0.072,0.011,0.098,0.011c0.492,0.014,0.925,0.164,1.189,0.413   c0.309,0.29,0.465,0.797,0.465,1.506V232.869z M52.576,224.917l-0.305-1.428c4.634-11.224,10.682-17.251,11.388-17.931l1.059-0.225   C62.807,207.697,57.027,215.217,52.576,224.917z M52.46,221.294c0.275-2.149,1.057-5.655,3.273-8.801   c1.981-2.811,4.207-4.611,5.765-5.646C59.375,209.29,55.685,214.125,52.46,221.294z M146.715,192.144   c-1.503,0.019-4.382,0.066-7.108,0.18l-0.237,0.01c-10.598,0.439-25.112,1.041-39.108,4.746c-0.401,0.105-0.64,0.516-0.533,0.916   c0.089,0.337,0.392,0.559,0.725,0.559c0.063,0,0.128-0.008,0.191-0.025c13.839-3.662,28.259-4.26,38.788-4.697l0.237-0.01   c2.697-0.112,5.548-0.159,7.046-0.178v2.821h1.182l0.002,38.266h-1.183v7.023h1.183v2.532h-2.052   c-0.251-6.605-5.487-20.005-12.212-28.097c-9.352-11.251-21.434-16.955-35.911-16.955c-0.015,0-0.031,0-0.046,0   c-1.479,0-2.921,0.044-4.34,0.11c-0.148-0.367-0.352-0.702-0.606-1.002c11.917-4.026,23.92-5.558,33.083-6.437   c8.809-0.846,12.46-0.938,14.875-0.998c0.732-0.019,1.336-0.033,1.911-0.066c1.164-0.035,2.551-0.066,4.114-0.097V192.144z    M326.788,191.949c6.576,6.261,13.173,13.126,18.468,20.035c-1.354-0.269-3.419-0.563-5.343-0.734   c-0.578-0.581-5.679-5.684-12.682-12.371l-0.558-1.974l-0.056-0.055c-0.188-0.188-0.398-0.396-0.593-0.59   C325.714,193.983,326.419,192.528,326.788,191.949z M374.313,233.034l-4.527,0.013c-0.736-1.476-2.139-1.911-2.908-2.029   c-0.07-1.124-0.389-1.941-0.979-2.393c-0.233-0.178-0.48-0.272-0.72-0.335c0.205-0.07,0.44-0.113,0.694-0.12l9.552,0.003   c-0.009,1.771-0.301,2.384-0.584,2.971C374.613,231.614,374.382,232.104,374.313,233.034z M364.448,228.888   c0.324,0.003,0.693,0.04,1.025,0.294c0.41,0.313,0.64,0.924,0.706,1.786h-1.974v-0.878   C364.206,229.582,364.29,229.183,364.448,228.888z M364.206,231.968h2.143c0.067,0,1.453,0.025,2.28,1.082l-4.423,0.013V231.968z    M363.963,237.003c0.146-0.046,0.243-0.181,0.243-0.333v-2.607l10.179-0.028c0.006,0,0.011,0,0.017,0c1.567,0,2.489,1.08,2.74,3.21   c0.141,1.195-0.017,2.089-0.455,2.583c-0.315,0.356-0.787,0.531-1.441,0.534l-18.627,0.052c-0.006,0-0.012,0-0.017,0   c-2.18,0-2.742-2.009-2.884-3.209c-0.093-0.791-0.081-1.873,0.502-2.532c0.341-0.386,0.859-0.583,1.538-0.586l4.948-0.014v0.615   c0,0.069,0.021,0.138,0.059,0.195c0.036,0.053,0.875,1.295,1.732,1.774c0.561,0.313,0.964,0.379,1.204,0.379   C363.844,237.036,363.932,237.014,363.963,237.003z M351.805,226.84c-0.013-0.107-0.022-0.209-0.04-0.328   c-0.066-0.451-1.213-4.265-2.425-7.821h3.076c0.294,2.131,0.437,4.813,0.102,7.967C352.37,226.72,352.121,226.805,351.805,226.84z    M353.36,225.483c1.445,1.522,4.245,4.517,7.016,7.59l-1.414,0.004c-3.811-5.214-5.107-6.84-5.622-7.343   C353.347,225.651,353.354,225.566,353.36,225.483z M360.706,230.09v1.856c-3.145-3.477-6.246-6.769-7.273-7.835   c0.043-1.36,0.008-2.613-0.083-3.752c1.43,1.567,4.646,4.995,7.704,7.584C360.845,228.532,360.706,229.237,360.706,230.09z    M349.1,217.991c-0.545-1.572-1.089-3.041-1.541-4.088c1.851,0.188,3.771,0.531,4.007,0.785c0.239,0.783,0.524,1.903,0.752,3.303   H349.1z M351.022,226.621c0.192,1.315,0.009,1.651-0.052,1.724c-0.126,0.147-0.287,0.217-0.509,0.217   c-0.531,0-1.124-0.396-1.132-0.402c-3.067-2.054-9.539-12.021-11.003-14.515c-0.563-0.956-0.804-1.48-0.909-1.763l0.021-0.023   c3.29,0.05,8.367,0.89,8.842,1.134C346.962,213.698,350.779,224.968,351.022,226.621z M259.618,244.286h-30.713v-51.51   c32.189,0.003,48.322,0.312,66.831,3.137c0.038,0.006,0.076,0.009,0.114,0.009c0.364,0,0.684-0.266,0.74-0.637   c0.063-0.409-0.219-0.792-0.628-0.854c-18.61-2.841-34.789-3.151-67.058-3.154v-1.694c32.492,0,60.914,0.059,81.849,6.924   c-2.698-0.446-5.498-0.668-8.487-0.668C282.217,195.838,260.297,214.351,259.618,244.286z M149.409,235.404v5.676h-2.02v-5.676   H149.409z M150.083,241.754v-7.023h-1.185l-0.002-38.266h1.185v-3.122c2.02-0.006,6.263-0.053,12.017-0.117   c14.939-0.167,39.878-0.445,65.808-0.449v51.51h-79.007v-2.532H150.083z M151.608,183.351c0.028,0.005,0.056,0.015,0.085,0.015   h0.198h0.26c-0.95,1.596-1.843,3.071-2.593,4.275v-0.926C150.168,185.733,150.865,184.587,151.608,183.351z M149.559,188.954   c3.316-5.197,10.714-18.119,11.963-20.42c3.016-5.552,6.672-8.958,11.857-11.042c7.979-3.209,37.176-4.805,53.77-4.501   c0.256,0.005,0.503,0.011,0.757,0.016v35.883c-5.494,0.074-55.507,0.757-77.824,1.118v-0.651h-0.522V188.954z M227.905,191.276   c-25.938,0.004-50.882,0.282-65.824,0.449c-5.748,0.064-9.988,0.111-12,0.117v-1.136c22.299-0.36,72.282-1.042,77.824-1.118   V191.276z M149.407,190.03v5.761h-2.019v-5.761H149.407z M316.544,197.884c-21.444-8.952-52.127-9.001-87.639-9.001v-35.855   c25.045,0.547,39.687,2.704,58.356,13.102c13.979,7.785,46.619,40.093,51.579,45.04c-0.266-0.018-0.523-0.031-0.773-0.041   C330.268,204.304,323.604,200.114,316.544,197.884z M326.139,197.22l0.239,0.846c-12.19-11.607-29.522-27.395-38.776-32.548   c-19.233-10.712-34.189-12.737-60.439-13.226c-16.653-0.32-45.985,1.31-54.045,4.55c-6.93,2.787-10.287,7.817-12.211,11.358   c-0.802,1.477-4.143,7.34-7.306,12.716c0.041-0.357,0.068-0.716,0.086-1.052c3.256-5.5,6.477-11.108,7.225-12.486   c2.807-5.169,6.995-8.901,12.449-11.094c7.943-3.193,37.163-4.79,53.789-4.476c26.341,0.49,41.315,2.504,60.42,13.144   C299.979,171.864,317.037,188.11,326.139,197.22z M149.559,185.572v-5.362c0.332,0.004,0.656,0.003,0.989,0.008   c0.074,1.017,0.237,2.161,0.592,2.75C150.582,183.896,150.048,184.776,149.559,185.572z M148.859,181.972v7.385h-0.875v-3.087   l0.647-0.864L148.859,181.972z M82.163,196.363c0.291,0.093,0.353,0.5,0.353,0.825v3.253c-1.091,0.17-2.14,0.354-3.163,0.546   c0.104-0.896,0.403-2.609,1.232-3.772C80.998,196.636,81.761,196.23,82.163,196.363z M83.107,196.328   c2.452,0.024,8.043,0.379,9.43,3.052c-3.281,0.181-6.382,0.521-9.271,0.952v-3.144C83.266,196.821,83.201,196.545,83.107,196.328z    M125.748,191.209c-9.287,0.893-21.482,2.448-33.579,6.582c-3.045-2.519-9.907-2.212-10.263-2.199v0.008   c-0.716,0.038-1.491,0.561-1.933,1.18c-1.015,1.423-1.311,3.478-1.394,4.354c-4.236,0.822-7.841,1.773-10.636,2.573   c18.47-16.005,47.137-18.021,64.412-19.231l2.736-0.195c3.252-0.509,4.264-2.891,4.564-4.02c1.761-0.04,3.542-0.065,5.351-0.071   c-0.528,2.259-2.735,9.955-8.326,10.166C134.268,190.479,130.886,190.716,125.748,191.209z M142.955,248.452   c0-3.054,2.425-3.163,2.699-3.166h114.379c0.352,0.57,0.938,1.687,0.938,2.465v2.201H142.955V248.452z M365.502,243.215   c-0.271-0.55-0.612-1.172-0.986-1.823l2.88-0.009c0.689,0.923,1.211,1.695,1.538,2.285c0.47,0.845,0.3,1.704-0.057,2.145   c-0.308,0.38-1.413,0.667-2.675,0.854C366.589,245.703,366.078,244.392,365.502,243.215z M369.427,242.547   c-0.223-0.352-0.485-0.739-0.792-1.167l1.232-0.004C369.771,241.685,369.627,242.091,369.427,242.547z M380.393,228.321   c0.151,0.061,0.303,0.143,0.431,0.263c0.309,0.29,0.465,0.797,0.465,1.506v2.945h-0.281   C380.114,230.852,380.13,229.604,380.393,228.321z M384.315,239.827c-0.315,0.356-0.787,0.531-1.441,0.534l-0.949,0.002   c0.545-1.708,0.228-3.855-0.242-5.468c0.333,0.676,0.85,1.559,1.396,1.864c0.558,0.313,0.961,0.379,1.204,0.379   c0.141,0,0.229-0.022,0.262-0.033c0.08-0.025,0.141-0.08,0.183-0.147c0.016,0.095,0.031,0.189,0.043,0.286   C384.911,238.439,384.754,239.333,384.315,239.827z M382.743,226.546c0.614,0.577,1.346,1.661,1.346,3.544v6.326   c-0.154-0.031-0.376-0.104-0.668-0.268c-0.485-0.271-1.124-1.513-1.434-2.275v-3.783c0-0.909-0.229-1.587-0.684-2.016   c-0.232-0.219-0.501-0.352-0.758-0.44c0.021-0.085,0.04-0.168,0.062-0.255c0.134-0.545,0.274-1.136,0.381-1.813   C381.534,225.725,382.179,226.014,382.743,226.546z M377.05,220.199c0.797,0.069,3.1,1.46,3.1,3.301   c0,1.558-0.261,2.616-0.513,3.64c-0.446,1.811-0.831,3.374,0.598,6.655c0.713,1.64,1.492,4.934,0.546,6.792   c-1.018,1.995-2.115,2.153-3.445,2.153c-1.54,0-1.965-0.545-2.029-1.384c0.915-0.016,1.633-0.305,2.13-0.866   c0.642-0.725,0.876-1.855,0.698-3.363c-0.263-2.234-1.259-3.606-2.827-3.979c0.049-0.762,0.222-1.128,0.435-1.569   c0.317-0.655,0.674-1.404,0.683-3.406c0.96-0.007,1.739-0.788,1.739-1.749s-0.778-1.742-1.737-1.749l-0.001-4.003   C376.464,220.535,376.616,220.154,377.05,220.199z M376.413,225.372c0.579,0,1.051,0.472,1.051,1.051s-0.472,1.051-1.051,1.051   l-10.571-0.002c-0.389,0.01-1.12,0.103-1.651,0.603c-0.454,0.429-0.684,1.106-0.684,2.016v6.225   c-0.155-0.031-0.376-0.105-0.668-0.269c-0.597-0.334-1.238-1.194-1.434-1.469v-1.814l0.021-0.019   c-0.007-0.008-0.014-0.015-0.021-0.022v-2.632c0-1.883,0.731-2.967,1.346-3.544c1.159-1.092,2.649-1.176,3.079-1.176   L376.413,225.372z M362.864,225.568c-0.202,0.136-0.402,0.287-0.594,0.468c-0.311,0.292-0.643,0.701-0.924,1.236   c-3.605-3.083-7.386-7.271-8.104-8.075c-0.243-2.077-0.643-3.688-0.962-4.732c-0.187-0.62-1.903-1.073-5.087-1.349   c-0.21-0.416-0.387-0.685-0.516-0.754c-0.096-0.051-0.269-0.109-0.503-0.172c-5.402-7.151-12.235-14.264-19.03-20.729   c3.189-4.264,6.256-8.316,7.246-9.623c6.005,6.211,11.41,12.953,16.178,20.196c-0.094,0.007-0.175,0.018-0.237,0.036   c-0.437,0.13-0.354,0.695-0.327,0.881c0.184,1.267,2.026,5.993,3.145,5.993l0.078-0.006c0.275-0.041,0.741-0.223,1.316-0.488   C357.803,214.06,360.601,219.815,362.864,225.568z M357.807,205.973l-0.233,0.127c-0.91,0.495-3.641,1.981-4.407,2.14   c-0.623-0.347-2.48-4.499-2.492-5.513c0.031-0.001,0.067-0.002,0.111-0.002c1.119,0,4.373,0.549,5.528,0.979   C357.19,204.648,357.894,205.725,357.807,205.973z M326.06,173.896c-0.394,0.457-1.324,1.419-3.441,3.184   c-2.751,2.295-4.809,0.896-6.461-0.229c-0.17-0.115-0.331-0.225-0.484-0.324c-1.617-1.051-8.953-7.148-12.339-10.026   c-2.616-2.226-5.702-5.146-6.337-8.007c-0.217-0.979,0.583-2.702,1.289-3.838c4.139,2.223,8.381,4.781,12.8,7.739   C316.373,165.934,321.364,169.775,326.06,173.896z M168.15,150.62c0.745-0.556,13.952-9.769,64.55-9.769   c25.13,0,43.466,2.248,64.258,13.102c-0.655,1.068-1.789,3.225-1.426,4.864c0.728,3.277,3.861,6.301,6.831,8.825   c2.694,2.292,10.662,8.952,12.493,10.142c0.145,0.094,0.297,0.198,0.457,0.307c1.059,0.721,2.552,1.736,4.377,1.736   c1.169,0,2.475-0.417,3.889-1.596c2.062-1.718,3.088-2.746,3.602-3.339c2.315,2.075,4.556,4.221,6.719,6.436   c-0.904,1.193-4.014,5.302-7.266,9.647c-6.189-5.861-12.314-11.175-17.254-15.455c-1.732-1.501-3.301-2.86-4.651-4.053   c-12.103-10.693-28.638-17.914-49.147-21.464c-7.953-1.376-22.036-2.054-37.653-1.801c-8.765,0.199-17.541,0.54-26.264,1.503   c-4.357,0.493-8.706,1.138-12.974,2.164c-2.131,0.519-4.243,1.13-6.288,1.927c-2.039,0.798-4.031,1.771-5.768,3.116   c1.751-1.324,3.751-2.273,5.795-3.047c2.049-0.771,4.163-1.357,6.295-1.85c4.27-0.976,8.617-1.57,12.972-2.012   c8.717-0.862,17.482-1.104,26.241-1.202c15.59-0.251,29.623,0.423,37.542,1.793c20.397,3.529,36.834,10.703,48.853,21.321   c1.351,1.194,2.921,2.555,4.655,4.058c4.947,4.287,11.086,9.613,17.285,15.486c-0.368,0.528-1.096,1.882-1.005,4.046   c-9.374-9.305-25.495-24.444-37.407-31.078c-19.216-10.702-34.255-12.728-60.699-13.22c-16.682-0.31-46.011,1.296-54.025,4.519   c-5.586,2.246-9.877,6.069-12.752,11.363c-0.703,1.298-3.605,6.354-6.661,11.534c0-0.021,0-0.048,0-0.067   c0-0.668-0.032-2.228-0.288-3.392C158.021,167.257,166.88,152.159,168.15,150.62z M151.694,174.559   c0.209,0.435,0.504,1.801,0.504,3.999c0,2.199-0.295,3.564-0.504,3.999c-0.162-0.336-0.399-1.271-0.479-2.932   c0.491-0.136,0.86-0.567,0.86-1.101c0-0.532-0.367-0.964-0.856-1.101C151.303,175.805,151.536,174.891,151.694,174.559z    M147.852,178.062h3.063c0.255,0,0.463,0.208,0.463,0.463s-0.208,0.463-0.463,0.463h-3.063c-0.255,0-0.463-0.208-0.463-0.463   S147.597,178.062,147.852,178.062z M148.274,180.199l-0.328,4.952l-0.661,0.886v3.319h-0.57v0.689   c-1.571,0.03-2.966,0.062-4.145,0.097c-0.578,0.033-1.174,0.048-1.898,0.066c-0.306,0.008-0.632,0.016-0.985,0.026   c4.068-2.219,5.656-8.265,6.045-10.052C146.57,180.183,147.425,180.193,148.274,180.199z M138.935,180.278   c-0.304,1.025-1.219,2.884-3.921,3.308l-2.706,0.191c-17.715,1.24-47.354,3.316-65.947,20.39c-0.422,0.124-0.82,0.243-1.191,0.354   l-0.021,0.006l-1.73,0.367c-0.062,0.014-0.118,0.043-0.165,0.085c-0.005,0.005-0.061,0.059-0.14,0.135   c-0.692,0.313-4.611,2.238-7.952,6.977c-3.462,4.912-3.555,10.51-3.553,11.175c-0.009,0.021-0.018,0.039-0.025,0.059   c-0.027,0.065-0.034,0.137-0.019,0.206l0.421,1.968c-1.02,2.174-2.015,4.666-2.96,7.399l-2.055-0.01V229.9   c0-1.453-0.396-2.488-0.874-3.218c1.197-3.611,2.657-6.855,4.229-9.386C65.071,193.55,94.146,181.413,138.935,180.278z    M46.416,219.253c1.34-2.306,2.42-2.963,2.944-3.149c0.258-0.092,0.468-0.108,0.617-0.104c-0.166,0.259-0.34,0.509-0.502,0.77   c-1.36,2.19-2.636,4.9-3.735,7.907c-0.035-0.013-0.067-0.031-0.105-0.037c-0.054-0.007-0.525-0.084-0.595-0.505   C44.823,222.82,45.273,221.224,46.416,219.253z M41.847,225.181c0.43,0,1.92,0.084,3.079,1.176   c0.614,0.577,1.346,1.661,1.346,3.544v3.74c-0.195,0.274-0.837,1.135-1.434,1.469c-0.292,0.163-0.513,0.237-0.668,0.269V229.9   c0-0.909-0.229-1.587-0.684-2.016c-0.531-0.5-1.263-0.593-1.683-0.604l-5.442,0.003c-0.579,0-1.051-0.472-1.051-1.051   s0.472-1.051,1.051-1.051h5.379L41.847,225.181z M31.356,227.284c-0.579,0-1.051-0.472-1.051-1.051s0.472-1.051,1.051-1.051h0.405   c0.107,0.758,0.259,1.412,0.405,2.007c0.008,0.032,0.015,0.063,0.022,0.095H31.356z M35.439,242.551   c-1.33,0-2.428-0.158-3.445-2.152c-0.946-1.859-0.167-5.153,0.546-6.793c1.429-3.281,1.044-4.845,0.598-6.655   c-0.252-1.023-0.513-2.082-0.513-3.64c0-1.841,2.303-3.231,3.1-3.301c0.433-0.033,0.578,0.315,0.625,0.474l-0.001,4.001   c-0.959,0.007-1.737,0.788-1.737,1.749s0.779,1.742,1.739,1.749c0.009,2.002,0.365,2.751,0.683,3.406   c0.213,0.441,0.386,0.808,0.435,1.57c-1.568,0.372-2.564,1.745-2.827,3.979c-0.178,1.508,0.057,2.639,0.698,3.363   c0.497,0.562,1.215,0.851,2.13,0.866C37.403,242.006,36.979,242.551,35.439,242.551z M43.255,248.26   c-0.006-0.135-0.019-0.294-0.034-0.489c-0.074-0.939-0.209-2.684-0.009-6.571l3.263,0.016c-1.18,3.828-1.79,7.073-2.042,8.621   C43.533,249.793,43.313,249.509,43.255,248.26z M94.642,271.661c-14.968,0-27.146-12.178-27.146-27.146   s12.178-27.145,27.146-27.145s27.146,12.177,27.146,27.145S109.609,271.661,94.642,271.661z M302.941,271.661   c-14.968,0-27.146-12.178-27.146-27.146s12.178-27.145,27.146-27.145s27.146,12.177,27.146,27.145S317.909,271.661,302.941,271.661   z M384.366,249.253l-20.767,0.01l-9.908,2.013l-23.499,0.226c0.573-2.234,0.879-4.575,0.879-6.985   c0-15.511-12.619-28.129-28.13-28.129s-28.13,12.618-28.13,28.129c0,3.002,0.478,5.894,1.353,8.608h-20.62   c-0.245,0-0.455,0.179-0.494,0.421l-0.03,0.194c-0.047,0.292-0.096,0.6-0.146,0.845c-0.36,1.767-3.776,1.606-3.832,1.6   c0,0-42-1-56.833-1.333c-7.861-0.177-16.468-1.034-22.362-1.727l-50.46,0.097c0.895-2.743,1.385-5.667,1.385-8.705   c0-15.511-12.619-28.129-28.13-28.129s-28.13,12.618-28.13,28.129c0,3.133,0.522,6.145,1.473,8.962   c-2.636-0.208-10.384-1.236-10.542-1.252c-0.086,0.001-8.601,0.21-10.65-0.15c-1.069-0.189-1.387-0.387-1.476-0.884   c1.253-0.54,5.662-2.567,9.783-5.981c0.486-0.402,0.949-0.777,1.395-1.139c3.834-3.104,6.366-5.155,11.253-14.582   c5.354-9.509,15.688-15.652,26.33-15.652c10.73,0,20.95,5.297,26.034,13.495c3.933,6.341,4.371,9.134,5.33,15.252l0.322,2.03   c1.075,6.666,7.045,6.332,7.075,6.331h9.567v-0.003c0.017,0.002,0.031,0.01,0.049,0.01h118.987c0.005,0,0.041,0.001,0.104,0.001   c0.967,0,8.297-0.192,9.102-5.881c1.004-7.099,1.918-11.546,9.021-20.407c6.385-7.963,17.365-12.087,27.976-10.486   c11.116,1.67,19.789,9.023,24.422,20.707c5.547,13.986,26.136,13.409,31.28,13.035v0.001c0.732-0.021,3.938-0.159,5.564-0.947   v0.046h15.455V249.253z"/><path d="M208.854,197.709c0.441,0.223,1.451,0.376,2.747,0.481c1.032,1.244,3.413,1.984,5.299,1.984c1.677,0,3.109-0.496,3.9-1.329   h5.188c0.154,0,0.279-0.125,0.279-0.279v-3.146c0-0.154-0.125-0.279-0.279-0.279h-5.204c-0.004,0-0.006,0.004-0.01,0.004   c-0.797-0.816-2.216-1.302-3.874-1.302c-1.889,0-4.274,0.742-5.303,1.99c-1.294,0.105-2.303,0.26-2.743,0.481   c-0.094,0.048-0.153,0.145-0.153,0.25v0.895C208.701,197.564,208.76,197.661,208.854,197.709z M212.208,198.235   c1.971,0.131,4.444,0.169,6.616,0.169c0.65,0,1.222-0.004,1.681-0.008v0.166c-0.712,0.752-2.038,1.2-3.604,1.2   C215.312,199.763,213.275,199.188,212.208,198.235z M225.709,198.287h-3.877c0.044-0.05,0.075-0.112,0.075-0.185v-2.181   c0-0.101-0.063-0.174-0.143-0.223h3.944V198.287z M216.9,194.255c1.566,0,2.892,0.448,3.604,1.2v0.173   c-0.46-0.004-1.033-0.008-1.685-0.008c-2.173,0-4.649,0.037-6.62,0.168C213.266,194.831,215.309,194.255,216.9,194.255z    M209.26,196.75c1.035-0.363,4.478-0.57,9.561-0.57c1.163,0,2.09,0.011,2.528,0.018v1.63c-0.438,0.007-1.364,0.018-2.524,0.018   c-5.085,0-8.529-0.207-9.564-0.571V196.75z"/><path d="M223.636,197.896c0.489,0,0.887-0.398,0.887-0.888s-0.397-0.888-0.887-0.888s-0.888,0.398-0.888,0.888   S223.146,197.896,223.636,197.896z M223.636,196.627c0.21,0,0.381,0.171,0.381,0.382s-0.171,0.382-0.381,0.382   c-0.211,0-0.382-0.171-0.382-0.382S223.425,196.627,223.636,196.627z"/><path d="M94.642,225.475c-10.498,0-19.039,8.542-19.039,19.041s8.541,19.04,19.039,19.04c10.499,0,19.041-8.541,19.041-19.04   S105.141,225.475,94.642,225.475z M94.642,262.866c-10.118,0-18.35-8.232-18.35-18.351c0-10.119,8.231-18.352,18.35-18.352   c10.119,0,18.352,8.232,18.352,18.352C112.993,254.634,104.761,262.866,94.642,262.866z"/><path d="M94.642,227.117c-9.594,0-17.399,7.805-17.399,17.398s7.806,17.399,17.399,17.399s17.399-7.806,17.399-17.399   S104.235,227.117,94.642,227.117z M94.642,261.226c-9.214,0-16.71-7.496-16.71-16.71s7.496-16.709,16.71-16.709   s16.71,7.495,16.71,16.709S103.855,261.226,94.642,261.226z"/><path d="M94.642,229.142c-8.477,0-15.373,6.896-15.373,15.374s6.896,15.375,15.373,15.375s15.373-6.897,15.373-15.375   S103.118,229.142,94.642,229.142z M94.642,259.191c-8.091,0-14.674-6.584-14.674-14.676s6.583-14.675,14.674-14.675   s14.674,6.583,14.674,14.675S102.732,259.191,94.642,259.191z"/><path d="M83.296,244.516c0,6.257,5.09,11.348,11.346,11.348s11.346-5.091,11.346-11.348s-5.09-11.347-11.346-11.347   S83.296,238.259,83.296,244.516z M105.405,244.516c0,5.937-4.829,10.766-10.764,10.766s-10.764-4.829-10.764-10.766   c0-5.936,4.829-10.765,10.764-10.765S105.405,238.58,105.405,244.516z"/><path d="M94.642,241.536c-1.565,0-2.838,1.217-2.957,2.752h-7.293v0.238c0,5.657,4.603,10.259,10.26,10.259   c5.655,0,10.256-4.602,10.256-10.259v-0.238h-7.307C97.481,242.753,96.208,241.536,94.642,241.536z M94.651,254.309   c-5.314,0-9.653-4.26-9.78-9.544h6.816c0.129,1.524,1.396,2.729,2.954,2.729s2.827-1.205,2.956-2.729h6.83   C104.301,250.049,99.964,254.309,94.651,254.309z M94.642,247.018c-1.38,0-2.503-1.123-2.503-2.502c0-1.38,1.123-2.503,2.503-2.503   c1.381,0,2.505,1.123,2.505,2.503C97.146,245.895,96.022,247.018,94.642,247.018z"/><path d="M92.356,232.107c0.03,0,0.061-0.002,0.092-0.006c0.01-0.002,1.057-0.136,2.193-0.136c1.138,0,2.2,0.135,2.211,0.136   c0.376,0.052,0.733-0.221,0.783-0.605c0.049-0.383-0.222-0.733-0.604-0.783c-0.047-0.006-1.159-0.147-2.39-0.147   c-1.231,0-2.329,0.142-2.375,0.147c-0.383,0.051-0.653,0.401-0.604,0.785C91.709,231.851,92.011,232.107,92.356,232.107z"/><path d="M83.749,237.565c0.21,0,0.418-0.094,0.556-0.273c0.006-0.008,0.648-0.839,1.456-1.646c0.805-0.805,1.65-1.461,1.658-1.468   c0.307-0.236,0.362-0.676,0.126-0.981c-0.235-0.306-0.676-0.363-0.981-0.126c-0.037,0.028-0.923,0.715-1.793,1.585   c-0.87,0.871-1.547,1.746-1.575,1.783c-0.235,0.306-0.179,0.745,0.128,0.981C83.45,237.518,83.601,237.565,83.749,237.565z"/><path d="M81.612,241.533c-0.374-0.054-0.733,0.222-0.783,0.604c-0.006,0.047-0.147,1.157-0.147,2.389s0.142,2.33,0.147,2.376   c0.046,0.353,0.347,0.609,0.693,0.609c0.03,0,0.061-0.002,0.092-0.006c0.383-0.05,0.653-0.401,0.604-0.785   c-0.002-0.01-0.136-1.053-0.136-2.194c0-1.138,0.135-2.199,0.136-2.21C82.267,241.934,81.996,241.583,81.612,241.533z"/><path d="M85.761,253.408c-0.805-0.805-1.46-1.65-1.466-1.659c-0.236-0.305-0.673-0.361-0.982-0.127   c-0.306,0.236-0.362,0.676-0.127,0.982c0.029,0.037,0.715,0.923,1.585,1.794c0.871,0.871,1.747,1.547,1.784,1.575   c0.127,0.098,0.277,0.146,0.426,0.146c0.21,0,0.418-0.094,0.556-0.273c0.235-0.307,0.179-0.746-0.128-0.981   C87.4,254.857,86.564,254.212,85.761,253.408z"/><path d="M96.837,256.951c-0.01,0.002-1.053,0.136-2.194,0.136c-1.138,0-2.199-0.135-2.21-0.137   c-0.372-0.052-0.734,0.221-0.784,0.604s0.221,0.734,0.604,0.784c0.047,0.006,1.158,0.148,2.39,0.148s2.33-0.142,2.376-0.147   c0.383-0.05,0.653-0.401,0.604-0.785S97.229,256.898,96.837,256.951z"/><path d="M104.98,251.76c-0.007,0.009-0.652,0.845-1.456,1.648c-0.804,0.805-1.651,1.459-1.659,1.466   c-0.307,0.236-0.363,0.676-0.128,0.981c0.138,0.18,0.346,0.273,0.556,0.273c0.148,0,0.299-0.048,0.426-0.146   c0.038-0.029,0.925-0.715,1.796-1.585c0.871-0.871,1.547-1.748,1.575-1.785c0.236-0.307,0.179-0.746-0.128-0.981   S105.216,251.455,104.98,251.76z"/><path d="M107.671,247.521c0.03,0.004,0.061,0.006,0.091,0.006c0.347,0,0.647-0.258,0.693-0.61c0.006-0.047,0.148-1.158,0.148-2.39   s-0.142-2.33-0.147-2.377c-0.05-0.383-0.394-0.657-0.785-0.604c-0.383,0.05-0.653,0.401-0.604,0.785   c0.002,0.01,0.136,1.054,0.136,2.195c0,1.138-0.135,2.199-0.137,2.21C107.017,247.12,107.287,247.471,107.671,247.521z"/><path d="M102.729,233.078c-0.306-0.235-0.746-0.179-0.981,0.128c-0.235,0.306-0.179,0.745,0.128,0.981   c0.008,0.007,0.845,0.652,1.648,1.457c0.805,0.805,1.46,1.65,1.466,1.659c0.139,0.179,0.346,0.272,0.555,0.272   c0.149,0,0.3-0.048,0.428-0.146c0.306-0.236,0.362-0.676,0.127-0.982c-0.029-0.037-0.715-0.923-1.585-1.794   C103.644,233.784,102.767,233.106,102.729,233.078z"/><path d="M302.941,225.475c-10.498,0-19.039,8.542-19.039,19.041s8.541,19.04,19.039,19.04c10.499,0,19.041-8.541,19.041-19.04   S313.44,225.475,302.941,225.475z M302.941,262.866c-10.118,0-18.35-8.232-18.35-18.351c0-10.119,8.231-18.352,18.35-18.352   c10.119,0,18.352,8.232,18.352,18.352C321.293,254.634,313.061,262.866,302.941,262.866z"/><path d="M302.941,227.117c-9.594,0-17.399,7.805-17.399,17.398s7.806,17.399,17.399,17.399s17.399-7.806,17.399-17.399   S312.535,227.117,302.941,227.117z M302.941,261.226c-9.214,0-16.71-7.496-16.71-16.71s7.496-16.709,16.71-16.709   s16.71,7.495,16.71,16.709S312.155,261.226,302.941,261.226z"/><path d="M302.941,229.142c-8.477,0-15.373,6.896-15.373,15.374s6.896,15.375,15.373,15.375s15.373-6.897,15.373-15.375   S311.418,229.142,302.941,229.142z M302.941,259.191c-8.091,0-14.674-6.584-14.674-14.676s6.583-14.675,14.674-14.675   s14.674,6.583,14.674,14.675S311.032,259.191,302.941,259.191z"/><path d="M291.596,244.516c0,6.257,5.09,11.348,11.346,11.348s11.346-5.091,11.346-11.348s-5.09-11.347-11.346-11.347   S291.596,238.259,291.596,244.516z M313.705,244.516c0,5.937-4.829,10.766-10.764,10.766s-10.764-4.829-10.764-10.766   c0-5.936,4.829-10.765,10.764-10.765S313.705,238.58,313.705,244.516z"/><path d="M302.941,241.536c-1.565,0-2.838,1.217-2.956,2.752h-7.294v0.238c0,5.657,4.603,10.259,10.26,10.259   c5.655,0,10.256-4.602,10.256-10.259v-0.238h-7.308C305.781,242.753,304.508,241.536,302.941,241.536z M302.951,254.309   c-5.314,0-9.653-4.26-9.78-9.544h6.816c0.129,1.524,1.396,2.729,2.954,2.729c1.56,0,2.827-1.205,2.956-2.729h6.83   C312.601,250.049,308.264,254.309,302.951,254.309z M302.941,247.018c-1.38,0-2.503-1.123-2.503-2.502   c0-1.38,1.123-2.503,2.503-2.503c1.381,0,2.505,1.123,2.505,2.503C305.446,245.895,304.322,247.018,302.941,247.018z"/><path d="M300.656,232.107c0.03,0,0.061-0.002,0.092-0.006c0.01-0.002,1.057-0.136,2.193-0.136c1.138,0,2.2,0.135,2.211,0.136   c0.373,0.052,0.733-0.221,0.783-0.605c0.049-0.383-0.222-0.733-0.604-0.783c-0.047-0.006-1.159-0.147-2.39-0.147   c-1.231,0-2.329,0.142-2.375,0.147c-0.383,0.051-0.653,0.401-0.604,0.785C300.009,231.851,300.311,232.107,300.656,232.107z"/><path d="M292.049,237.565c0.21,0,0.418-0.094,0.556-0.273c0.006-0.008,0.648-0.839,1.456-1.646c0.805-0.805,1.65-1.461,1.658-1.468   c0.307-0.236,0.362-0.676,0.126-0.981c-0.235-0.306-0.676-0.363-0.981-0.126c-0.037,0.028-0.923,0.715-1.793,1.585   c-0.87,0.871-1.547,1.746-1.575,1.783c-0.235,0.306-0.179,0.745,0.128,0.981C291.75,237.518,291.9,237.565,292.049,237.565z"/><path d="M289.912,241.533c-0.377-0.054-0.733,0.222-0.783,0.604c-0.006,0.047-0.147,1.157-0.147,2.389s0.142,2.33,0.147,2.376   c0.046,0.353,0.347,0.609,0.693,0.609c0.03,0,0.061-0.002,0.092-0.006c0.383-0.05,0.653-0.401,0.604-0.785   c-0.002-0.01-0.136-1.053-0.136-2.194c0-1.138,0.135-2.199,0.136-2.21C290.566,241.934,290.296,241.583,289.912,241.533z"/><path d="M294.061,253.408c-0.805-0.805-1.46-1.65-1.466-1.659c-0.237-0.307-0.676-0.361-0.982-0.127   c-0.306,0.236-0.362,0.676-0.127,0.982c0.029,0.037,0.715,0.923,1.585,1.794c0.871,0.871,1.747,1.547,1.784,1.575   c0.127,0.098,0.277,0.146,0.426,0.146c0.21,0,0.418-0.094,0.556-0.273c0.235-0.307,0.179-0.746-0.128-0.981   C295.7,254.857,294.864,254.212,294.061,253.408z"/><path d="M305.137,256.951c-0.01,0.002-1.053,0.136-2.194,0.136c-1.138,0-2.199-0.135-2.21-0.137   c-0.375-0.052-0.734,0.221-0.784,0.604s0.221,0.734,0.604,0.784c0.047,0.006,1.158,0.148,2.39,0.148s2.33-0.142,2.376-0.147   c0.383-0.05,0.653-0.401,0.604-0.785C305.871,257.171,305.525,256.898,305.137,256.951z"/><path d="M313.28,251.76c-0.007,0.009-0.652,0.845-1.456,1.648c-0.804,0.805-1.651,1.459-1.659,1.466   c-0.307,0.236-0.363,0.676-0.128,0.981c0.138,0.18,0.346,0.273,0.556,0.273c0.148,0,0.299-0.048,0.426-0.146   c0.038-0.029,0.925-0.715,1.796-1.585c0.871-0.871,1.547-1.748,1.575-1.785c0.236-0.307,0.179-0.746-0.128-0.981   C313.956,251.396,313.516,251.455,313.28,251.76z"/><path d="M315.971,247.521c0.03,0.004,0.061,0.006,0.091,0.006c0.347,0,0.647-0.258,0.693-0.61c0.006-0.047,0.148-1.158,0.148-2.39   s-0.142-2.33-0.147-2.377c-0.051-0.383-0.396-0.657-0.785-0.604c-0.383,0.05-0.653,0.401-0.604,0.785   c0.002,0.01,0.136,1.054,0.136,2.195c0,1.138-0.135,2.199-0.137,2.21C315.316,247.12,315.587,247.471,315.971,247.521z"/><path d="M311.029,233.078c-0.306-0.235-0.746-0.179-0.981,0.128c-0.235,0.306-0.179,0.745,0.128,0.981   c0.008,0.007,0.845,0.652,1.648,1.457c0.805,0.805,1.46,1.65,1.466,1.659c0.139,0.179,0.346,0.272,0.555,0.272   c0.149,0,0.3-0.048,0.428-0.146c0.306-0.236,0.362-0.676,0.127-0.982c-0.029-0.037-0.715-0.923-1.585-1.794   C311.943,233.784,311.066,233.106,311.029,233.078z"/><path d="M329.871,184.969c0.054,0.05,0.121,0.073,0.188,0.073c0.075,0,0.149-0.029,0.204-0.089   c0.104-0.113,0.097-0.289-0.016-0.393l-5.844-5.381c-0.113-0.105-0.289-0.098-0.393,0.016c-0.104,0.113-0.097,0.289,0.016,0.393   L329.871,184.969z"/><path d="M330.425,184.229c0.053,0.049,0.119,0.073,0.186,0.073c0.073,0,0.146-0.029,0.199-0.087   c0.103-0.11,0.097-0.282-0.014-0.385l-5.702-5.309c-0.111-0.103-0.282-0.096-0.385,0.014c-0.103,0.11-0.097,0.282,0.014,0.385   L330.425,184.229z"/><path d="M330.98,183.492c0.051,0.048,0.116,0.071,0.182,0.071c0.071,0,0.143-0.028,0.195-0.085   c0.101-0.107,0.095-0.276-0.014-0.377l-5.649-5.275c-0.106-0.1-0.276-0.095-0.377,0.014c-0.101,0.107-0.095,0.276,0.014,0.377   L330.98,183.492z"/><path d="M331.534,182.753c0.051,0.047,0.114,0.07,0.179,0.07c0.069,0,0.139-0.027,0.19-0.082c0.099-0.105,0.094-0.271-0.012-0.369   l-5.507-5.16c-0.105-0.099-0.27-0.095-0.369,0.012c-0.099,0.105-0.094,0.271,0.012,0.369L331.534,182.753z"/><path d="M332.09,182.016c0.049,0.046,0.112,0.069,0.175,0.069c0.068,0,0.136-0.027,0.187-0.081   c0.097-0.103,0.092-0.265-0.012-0.361l-5.382-5.062c-0.102-0.095-0.264-0.09-0.361,0.012c-0.097,0.103-0.092,0.265,0.012,0.361   L332.09,182.016z"/><path d="M332.645,181.277c0.048,0.045,0.109,0.067,0.171,0.067c0.066,0,0.133-0.026,0.183-0.079   c0.094-0.101,0.089-0.259-0.012-0.354l-5.283-4.965c-0.1-0.093-0.258-0.09-0.354,0.012c-0.094,0.101-0.089,0.259,0.012,0.354   L332.645,181.277z"/></g><text x="0" y="440.197" fill="#000000" font-size="5px" font-weight="bold" font-family="'Helvetica Neue', Helvetica, Arial-Unicode, Arial, Sans-serif">Created by John Burraco</text><text x="0" y="445.197" fill="#000000" font-size="5px" font-weight="bold" font-family="'Helvetica Neue', Helvetica, Arial-Unicode, Arial, Sans-serif">from the Noun Project</text></svg>