<svg xmlns="http://www.w3.org/2000/svg" xmlns:xlink="http://www.w3.org/1999/xlink" version="1.1" x="0px" y="0px" viewBox="0 0 425.197 531.49625" enable-background="new 0 0 425.197 425.197" xml:space="preserve"><g><path d="M177.186,194.037h78.303c2.176,0,3.752-0.955,4.56-2.76c0.616-1.372,0.616-2.896,0.616-3.548v-23.266   c0-6.116-4.585-6.116-6.092-6.116c-0.203,0-75.347,0.017-75.334,0.017l-0.491-0.008c-0.248-0.005-0.442-0.009-0.646-0.009   c-1.507,0-6.091,0-6.091,6.116v23.278c0,0.647,0,2.162,0.614,3.534C173.434,193.082,175.011,194.037,177.186,194.037z    M182.302,180.633v1.119h-8.791v-1.119H182.302z M235.947,159.852c1.521,2.886,9.808,18.343,13.797,20.232   c-0.041,0.057-0.07,0.123-0.07,0.199v1.818c0,0.135,0.078,0.249,0.19,0.307c-2.683,2.377-6.491,6.354-6.972,10.129h-53.111   c-0.479-3.774-4.289-7.752-6.971-10.129c0.111-0.058,0.19-0.172,0.19-0.307v-1.818c0-0.075-0.029-0.142-0.069-0.199   c3.986-1.892,12.26-17.317,13.791-20.224C208.483,159.857,223.959,159.854,235.947,159.852z M259.164,180.633v1.119h-8.791v-1.119   H259.164z M177.186,192.537c-1.583,0-2.627-0.613-3.191-1.874c-0.483-1.079-0.483-2.37-0.483-2.921v-5.291h1.803   c0.007,0.032,0.012,0.064,0.027,0.095c0.03,0.06,2.92,5.661,3.619,9.991H177.186z M179.667,192.537   c-0.616-4.026-3.034-8.987-3.589-10.086h3.005c0.012,0.055,0.012,0.113,0.051,0.159c0.058,0.068,5.338,6.39,6.076,9.927H179.667z    M185.922,192.537c-0.628-3.345-4.947-8.785-6.012-10.086h1.882c2.095,1.791,6.719,6.145,7.285,10.086H185.922z M250.883,182.451   h1.883c-1.064,1.301-5.385,6.741-6.013,10.086h-3.155C244.164,188.596,248.789,184.242,250.883,182.451z M253.541,182.61   c0.039-0.046,0.039-0.104,0.051-0.159h3.005c-0.554,1.099-2.973,6.06-3.589,10.086h-5.543   C248.203,189.001,253.484,182.679,253.541,182.61z M259.164,187.729c0,0.555,0,1.854-0.485,2.935   c-0.563,1.26-1.607,1.873-3.19,1.873h-1.773c0.699-4.33,3.588-9.932,3.619-9.991c0.016-0.03,0.021-0.063,0.027-0.095h1.803V187.729   z M259.164,164.464v15.47h-2.301c-0.001-0.007,0.001-0.015-0.001-0.021c-1.407-5.415-2.069-17.238-2.21-20.063   C257.006,159.862,259.164,160.453,259.164,164.464z M253.952,159.848c0.136,2.75,0.791,14.521,2.194,20.086h-1.555   c-0.012-0.055-0.012-0.111-0.05-0.157c-2.687-3.225-7.153-16.684-8.206-19.927C250.088,159.849,252.8,159.848,253.952,159.848z    M245.6,159.85c0.9,2.801,5.301,16.215,8.182,20.084h-2.804c-0.037-0.07-0.095-0.13-0.174-0.162l-0.65-0.263   c-3.534-1.412-11.53-16.12-13.413-19.657C240.028,159.851,243.03,159.851,245.6,159.85z M182.521,179.51l-0.649,0.262   c-0.08,0.032-0.137,0.092-0.174,0.162h-2.804c2.876-3.862,7.267-17.24,8.178-20.071c2.518,0,5.528-0.001,8.858-0.002   C194.038,163.415,186.053,178.098,182.521,179.51z M186.334,159.862c-1.061,3.269-5.519,16.694-8.201,19.914   c-0.038,0.046-0.038,0.103-0.049,0.157h-1.556c1.401-5.56,2.057-17.312,2.194-20.077c0.008,0,0.012,0,0.02,0l0.483,0.008   C179.226,159.864,181.941,159.863,186.334,159.862z M173.511,164.464c0-4.012,2.157-4.603,4.512-4.615   c-0.142,2.825-0.802,14.647-2.21,20.063c-0.002,0.007,0,0.015-0.001,0.021h-2.301V164.464z"/><path d="M274.777,194.037h67.824c0.954,0,3.314-0.189,4.635-1.947c0.879-1.169,1.051-2.706,0.52-4.538l-5.675-23.304   c-1.643-5.456-3.973-5.9-6.626-5.9c-0.203,0-58.637,0.017-58.624,0.017l-0.496-0.008c-0.246-0.005-0.439-0.009-0.642-0.009   c-1.506,0-6.09,0-6.09,6.116v23.278c0,0.647,0,2.162,0.614,3.533C271.025,193.082,272.602,194.037,274.777,194.037z    M279.895,180.633v1.119h-8.791v-1.119H279.895z M319.641,159.853c1.521,2.886,9.808,18.342,13.797,20.231   c-0.041,0.057-0.07,0.123-0.07,0.199v1.818c0,0.135,0.078,0.249,0.19,0.307c-2.683,2.377-6.491,6.354-6.972,10.129h-39.211   c-0.48-3.774-4.289-7.752-6.972-10.129c0.112-0.058,0.19-0.172,0.19-0.307v-1.818c0-0.075-0.029-0.142-0.07-0.199   c3.987-1.892,12.263-17.321,13.793-20.225C302.356,159.857,311.817,159.854,319.641,159.853z M344.528,180.633l0.272,1.119h-10.734   v-1.119H344.528z M274.777,192.537c-1.583,0-2.627-0.613-3.19-1.874c-0.483-1.079-0.483-2.37-0.483-2.921v-5.291h1.803   c0.006,0.032,0.012,0.064,0.027,0.095c0.031,0.06,2.92,5.661,3.619,9.991H274.777z M277.26,192.537   c-0.616-4.026-3.035-8.987-3.589-10.086h3.005c0.012,0.055,0.012,0.113,0.051,0.159c0.057,0.068,5.338,6.39,6.076,9.927H277.26z    M283.515,192.537c-0.628-3.345-4.948-8.785-6.013-10.086h1.883c2.094,1.791,6.719,6.145,7.285,10.086H283.515z M334.576,182.451   h1.883c-1.064,1.301-5.385,6.741-6.013,10.086h-3.155C327.857,188.596,332.482,184.242,334.576,182.451z M337.234,182.61   c0.039-0.046,0.039-0.104,0.051-0.159h3.005c-0.554,1.099-2.973,6.06-3.589,10.086h-5.543   C331.896,189.001,337.178,182.679,337.234,182.61z M346.037,191.189c-0.634,0.844-1.919,1.348-3.436,1.348h-5.193   c0.699-4.33,3.588-9.932,3.619-9.991c0.016-0.03,0.021-0.063,0.027-0.095h3.916l1.336,5.487   C346.708,189.323,346.617,190.417,346.037,191.189z M340.635,164.642l3.723,15.292h-3.801c-0.001-0.007,0.001-0.015-0.001-0.021   c-1.312-5.046-1.976-15.654-2.173-19.364C339.196,161.176,339.948,162.364,340.635,164.642z M335.455,159.848   c0.776,0,1.511,0.004,2.204,0.282c0.164,3.193,0.821,14.411,2.181,19.804h-1.555c-0.012-0.055-0.012-0.111-0.05-0.157   c-2.687-3.225-7.153-16.684-8.206-19.927C333.355,159.849,335.417,159.848,335.455,159.848z M329.293,159.85   c0.9,2.8,5.301,16.215,8.182,20.084h-2.804c-0.037-0.07-0.095-0.13-0.174-0.162l-0.65-0.263   c-3.534-1.412-11.53-16.119-13.413-19.657C323.809,159.851,326.845,159.851,329.293,159.85z M280.113,179.51l-0.649,0.262   c-0.079,0.032-0.137,0.092-0.174,0.162h-2.804c2.876-3.863,7.268-17.242,8.178-20.071c2.547-0.001,5.572-0.002,8.859-0.003   C291.633,163.412,283.646,178.098,280.113,179.51z M283.928,159.862c-1.061,3.268-5.52,16.694-8.202,19.914   c-0.038,0.046-0.038,0.103-0.05,0.157h-1.555c1.402-5.56,2.057-17.312,2.194-20.077h0.02l0.483,0.008   C276.818,159.864,279.59,159.863,283.928,159.862z M271.104,164.464c0-4.012,2.158-4.603,4.512-4.615   c-0.141,2.825-0.802,14.647-2.21,20.063c-0.002,0.007,0,0.015-0.001,0.021h-2.301V164.464z"/><path d="M158.375,210.105h-4.416l-0.004,0.001c-0.002,0-0.004,0-0.006-0.001l-11.546,0.405c-0.142,0.005-0.253,0.12-0.253,0.262   v1.74c0,0.142,0.111,0.257,0.253,0.262l11.546,0.405h0.009h0.001h4.416c0.145,0,0.262-0.117,0.262-0.262v-2.551   C158.637,210.223,158.52,210.105,158.375,210.105z M153.696,212.646l-11.022-0.387v-1.234l11.022-0.387V212.646z M158.113,212.656   h-3.893v-2.027h3.893V212.656z"/><path d="M156.162,212.45c0.445,0,0.808-0.362,0.808-0.808s-0.362-0.808-0.808-0.808c-0.444,0-0.807,0.362-0.807,0.808   S155.718,212.45,156.162,212.45z M156.162,211.175c0.258,0,0.468,0.21,0.468,0.468s-0.21,0.468-0.468,0.468   s-0.467-0.21-0.467-0.468S155.904,211.175,156.162,211.175z"/><path d="M51.601,239.274l-0.148-0.462c-0.188-0.592-0.864-0.766-1.243-0.775h-5.477c-0.104,0-0.201,0.045-0.268,0.124   s-0.095,0.183-0.077,0.284l1.645,9.613c0.028,0.169,0.174,0.291,0.345,0.291h6.748c0.568,0,0.837-0.226,0.962-0.415   c0.159-0.24,0.176-0.553,0.046-0.857C54.073,246.936,53.586,245.467,51.601,239.274z M53.503,247.549   c-0.031,0.047-0.148,0.102-0.378,0.102h-6.453l-1.524-8.914H50.2c0.005,0,0.503,0.029,0.586,0.29l0.148,0.462   c1.649,5.145,2.461,7.644,2.554,7.862C53.523,247.432,53.528,247.51,53.503,247.549z"/><path d="M399.242,254.364h-2.134c-0.323-0.424-0.827-0.701-1.399-0.701h-5.206l0.432-1.342c0.05-0.152,0.022-0.318-0.071-0.448   c-0.095-0.129-0.244-0.205-0.404-0.205h-0.248c1.047-3.575,1.958-7.271,2.708-11.01h0.161c0.239,0,0.444-0.169,0.49-0.403   c2.611-13.211,2.563-23.444,2.523-25.468v-0.699h-0.9v-5.051h0.582v-0.699h-0.014c-0.12-5.712-3.137-12.115-3.268-12.39   c-0.086-0.182-0.262-0.307-0.476-0.284c-0.149,0.007-0.304,0.014-0.458,0.021c-9.266-24.035-14.795-35.668-17.449-40.747h0.233   c0.181,0,0.347-0.097,0.436-0.254s0.086-0.35-0.007-0.504l-1.133-1.883c-0.091-0.15-0.253-0.242-0.429-0.242h-0.571   c-0.456-0.956-2.045-3.933-5.324-6.791l4.627,1.865l-0.22-3.975l-1.014-0.429c-0.164-1.734-1.006-10.242-2.158-14.412   c-0.948-3.433-2.568-5.612-4.815-6.479c-1.999-0.771-12.652-5.109-12.76-5.153l-0.255-0.104l-1.886,1.348l-61.129-24.789   l-0.156-2.071l-6.769-2.733l-1.699,1.201L197.54,56.63l-0.18-1.992l-12.991-5.246l-1.758,1.055l-7.065,17.491l3.064,1.235   c-0.753,5.055-7.208,47.012-16.241,64.676c-0.058-0.022-0.12-0.037-0.187-0.037h-1.062v-0.892l-64.223,2.192l-7.908,11.862   c-0.018-0.012-0.032-0.022-0.05-0.034c-0.342-0.231-0.81-0.139-1.041,0.203c-0.208,0.31-0.144,0.71,0.12,0.957   c-3.547,3.654-23.799,24.713-37.89,43.315h-0.392c-0.414,0-0.75,0.336-0.75,0.75c0,0.195,0.079,0.37,0.201,0.503   c-0.712,0.955-1.411,1.903-2.085,2.839h-0.896c-0.146,0-0.286,0.064-0.381,0.176c-0.31,0.364-7.539,8.869-10.219,13.286   c-0.093,0.091-0.151,0.217-0.151,0.357v2.081c0,0.032,0.013,0.062,0.019,0.092v1.542h2.769l0.005,0.849h-2.717v1.199h2.725   l0.006,0.913h-2.617v1.199h2.625l0.006,0.913H35.76v1.199h2.525l0.006,0.912h-2.418v1.199h2.426l0.006,0.913h-2.318v1.199h2.326   l0.006,0.913H35.93v1.199h2.396l0.006,0.913h-2.289v1.199h2.297l0.005,0.82h-2.058v1.901c-0.001,0.023-0.01,0.045-0.008,0.069   l0.64,7.349c0.002,0.02,0.012,0.036,0.016,0.056v0.404h3.023l0.114,0.683h-2.65v1h2.817l0.12,0.72h-2.512v1h2.679l0.12,0.718   h-2.374v1h2.542l0.119,0.717h-2.377v1h2.545l0.12,0.72h-2.24v1h2.407l0.114,0.683h-2.085v1.6h0.033   c-0.005,0.036-0.012,0.072-0.005,0.109l0.274,1.601h-0.429c-0.09,0-0.175,0.04-0.231,0.109c-0.058,0.069-0.08,0.16-0.063,0.248   l0.729,3.694c-0.161,0.108-0.299,0.247-0.416,0.401h-4.685c-0.876,0-1.589,0.713-1.589,1.598l0.254,9.348   c0,0.876,0.713,1.589,1.59,1.589h4.712c0.323,0.423,0.827,0.701,1.4,0.701h7.04l0.988,2.053c0.044,0.091,0.13,0.155,0.229,0.172   c13.967,2.263,46.157,4.423,49.262,4.486c1.976,12.616,12.917,22.298,26.079,22.298c13.008,0,23.841-9.459,26-21.859   c0.578,0.035,1.64,0.111,3.055,0.214c8.785,0.635,32.121,2.322,52.688,2.322c1.738,0,3.01-0.681,4.239-1.338   c1.173-0.628,2.281-1.22,3.752-1.22l31.396-0.009l10.968,2.566h40.64c3.102,11.13,13.323,19.323,25.429,19.323   c14.048,0,25.564-11.031,26.352-24.886c2.866-0.126,14.784-1.245,15.338-1.298l16.741-2.67c0.521,0.805,1.496,1.64,3.313,1.64h13.5   c0.171,0,0.311-0.14,0.311-0.311v-3.186h0.677c0.877,0,1.59-0.713,1.59-1.58l0.254-9.365   C400.832,255.077,400.119,254.364,399.242,254.364z M395.709,254.362c0.588,0,1.066,0.479,1.066,1.058l-0.283,10.413   c0,0.588-0.479,1.067-1.068,1.067h-16.215c-0.588,0-1.066-0.479-1.066-1.067V255.43c0-0.588,0.479-1.067,1.066-1.067H395.709z    M377.443,255.43v9.419c-4.428,0.587-10.914,1.126-16.183,1.512v-14.8h22.265c0.164,0,0.307-0.113,0.342-0.274l0.434-1.96   c0.022-0.104-0.003-0.212-0.069-0.294c-0.066-0.083-0.166-0.131-0.272-0.131h-22.698v-34.114h30.422   c-0.077,2.831-0.799,22.429-6.229,38.876h-6.245C378.235,253.663,377.443,254.455,377.443,255.43z M288.535,272.813   c0.104-2.604,0.74-11.307,4.562-18.774c3.103-6.063,6.381-8.836,8.89-10.575c5.615-3.892,15.786-3.898,20.165-3.898   c0.007,0,0.014,0,0.014,0h3.265c3.331,0,11.132,0,17.245,4.167c4.069,2.773,6.715,6.244,8.325,10.922   c1.823,5.297,2.679,10.878,2.865,12.208c-0.539,0.034-0.957,0.06-1.208,0.074c-0.18-1.278-0.995-6.597-2.733-11.645   c-1.564-4.55-4.139-7.926-8.099-10.623c-5.929-4.043-13.428-4.043-16.63-4.043h-3.092c-4.168,0-13.929,0.001-19.397,3.792   c-2.429,1.683-5.601,4.364-8.594,10.212c-3.765,7.357-4.386,15.954-4.485,18.184H288.535z M354.523,266.82   c-0.174-1.241-1.033-6.953-2.902-12.38c-1.659-4.819-4.384-8.395-8.577-11.252c-6.28-4.28-14.223-4.28-17.614-4.28h-3.271   c-0.007,0-0.014,0-0.014,0c-4.434,0-14.748,0.006-20.533,4.016c-2.571,1.782-5.93,4.622-9.099,10.815   c-3.888,7.597-4.529,16.444-4.635,19.073h-1.337c0.067-2.229,0.604-11.974,4.857-20.285c3.29-6.431,6.765-9.37,9.424-11.212   c5.946-4.122,16.751-4.128,21.4-4.128c0.007,0,0.015,0,0.015,0h3.479c3.535,0,11.813,0,18.289,4.413   c4.112,2.803,6.743,6.369,8.531,11.563c1.959,5.689,2.851,12.152,3.032,13.589C355.193,266.777,354.842,266.8,354.523,266.82z    M154.021,272.813c-0.12-3.018-0.64-12.861-2.418-17.915c-2.109-5.991-4.152-7.956-7.027-10.27   c-5.167-4.152-15.252-4.168-19.66-4.168c-0.018,0-0.035,0-0.052,0h-3.348c-3.472,0.019-9.98-0.004-15.884,4.154   c-2.579,1.815-5.279,4.316-7.555,10.275c-2.229,5.842-2.923,12.438-3.059,13.967c-0.179-0.01-0.438-0.024-0.751-0.041   c0.066-1.284,0.545-8.313,3.178-14.827c2.514-6.218,5.289-8.773,7.674-10.453c6.007-4.236,12.688-4.224,16.253-4.232h3.565   c0.021,0,0.04,0,0.06,0c4.5,0,14.894,0.019,20.113,4.219c2.486,2,4.834,3.889,7.146,10.452c1.861,5.283,2.396,16.063,2.506,18.839   H154.021z M155.463,272.813c-0.104-2.77-0.621-13.603-2.547-19.071c-2.212-6.281-4.353-8.341-7.366-10.765   c-5.413-4.355-15.979-4.373-20.611-4.373c-0.02,0-0.04,0-0.06,0h-3.507c-0.066,0-0.134-0.001-0.203-0.001   c-3.702,0-10.377,0.076-16.453,4.36c-2.468,1.738-5.338,4.377-7.919,10.764c-2.668,6.602-3.158,13.714-3.229,15.049   c-4.882-0.275-18.764-1.102-28.15-2.061l-0.223-3.09l27.233,1.645c0.011,0.001,0.021,0.001,0.03,0.001   c0.242,0,0.451-0.174,0.493-0.415c0.001-0.005,0.007-0.036,0.017-0.094c0.011-0.062,0.029-0.16,0.051-0.276   c0.258-1.396,1.271-6.557,2.845-10.883c0.138-0.379,0.279-0.753,0.426-1.116c2.603-6.454,5.378-9.048,7.99-10.891   c0.453-0.319,0.911-0.608,1.369-0.883c2.314-1.388,4.688-2.239,6.925-2.751c3.428-0.781,6.537-0.781,8.654-0.774h3.739h0.064   c4.7,0,15.551,0.02,20.98,4.39c2.589,2.083,5.034,4.05,7.441,10.889c2.001,5.677,2.299,17.808,2.339,20.347H155.463z    M64.413,249.551h32.09c-0.213,0.435-0.425,0.884-0.635,1.36H64.509C64.477,250.458,64.444,250.004,64.413,249.551z    M40.238,212.009l4.344-0.003c1.139,0,1.646,0.247,1.648,1.708l0.008,14.9c0,0.498-0.174,1.335-1.333,1.336l-4.551,0.003   L40.238,212.009z M37.793,236.413l-0.458-5.259l7.57-0.005c1.75-0.001,2.532-1.274,2.532-2.535l-0.008-14.901   c-0.002-2.605-1.626-2.906-2.848-2.906l-8.124,0.005v-0.956h7.084c6.438,0,10.571-5.883,10.733-6.117l37.669-50.343l0.273,0.364   l-28.753,38.478c-0.077,0.081-1.907,2.044-1.907,5.971l-0.284,10.459l0.567,0.016v0.01c0.04,4.054,0.278,21.712,1.53,40.259h-6.584   l-4.097-12.333c-0.041-0.122-0.156-0.205-0.285-0.205H37.793z M370.749,154.938c0.08,0.163,0.156,0.314,0.242,0.5   c0.468,1.016,1.029,2.218,1.646,3.538c2.29,4.906,5.426,11.625,7.304,16.321c1.081,2.702,2.116,5.196,3.102,7.573   c2.365,5.702,4.407,10.626,6.165,16.152c1.601,5.031,1.822,6.788,1.979,9.315h-29.926v-10.176h12.272   c1.474,0,2.849-0.67,3.68-1.792c0.938-1.266,1.138-3.003,0.563-4.892c-0.085-0.277-8.48-27.771-10.164-31.378   c-1.589-3.398-3.842-3.996-7.986-3.996h-94.7v-1.167H370.749z M390.859,214.088h-29.599v-5.051h29.599V214.088z M352.148,249.601   h8.513v1.261h-7.932C352.546,250.425,352.347,250.014,352.148,249.601z M361.261,249.601h22.263l-0.279,1.261h-21.983V249.601z    M360.661,248.901h-8.854c-1.75-3.374-4.071-5.968-7.239-8.127c-6.729-4.587-15.225-4.587-18.852-4.587h-3.486   c-0.007,0-0.014,0-0.021,0c-4.729,0-15.754,0.007-21.957,4.306c-2.271,1.573-5.113,3.922-7.941,8.408h-27.386v-34.114h95.736   V248.901z M285.799,269.15h-20.874v-17.59h25.854c-0.09,0.171-0.182,0.335-0.271,0.512   C287.41,258.126,286.241,264.919,285.799,269.15z M154.397,252.134c-0.07-0.199-0.14-0.382-0.21-0.573h6.188v17.59h-3.686   C156.492,264.338,155.939,256.511,154.397,252.134z M62.844,209.037h97.24v5.051H62.92   C62.878,211.825,62.855,210.095,62.844,209.037z M360.661,208.338h-95.736v-10.176h95.736V208.338z M264.325,214.088h-96.9v-5.051   h96.9V214.088z M264.325,248.901h-96.9v-34.114h96.9V248.901z M264.325,250.861h-96.9v-1.261h96.9V250.861z M161.074,249.601h5.751   v1.261h-5.751V249.601z M167.425,208.338v-10.176h96.9v10.176H167.425z M161.084,196.021h5.741v1.142h-5.741V196.021z    M264.325,197.162h-96.9v-1.142h96.9V197.162z M264.925,197.162v-1.142h91.332l0.056-0.02c0.045-0.016,4.53-1.578,6.695-2.388   c1.137-0.427,1.514-1.238,1.562-2.113c0.274,0.296,0.649,0.513,1.194,0.513h0.002l9.115-0.006c0.556,0,1.051-0.236,1.357-0.646   c0.134-0.18,0.217-0.39,0.268-0.611c0.11,0.357,0.216,0.704,0.313,1.021c0.616,2.022,0.118,3.295-0.408,4.006   c-0.644,0.868-1.719,1.387-2.877,1.387H264.925z M357.637,162.632c-0.045-0.149-0.063-0.25-0.071-0.314   c0.034-0.004,0.078-0.006,0.134-0.006l7.701-0.005c0.485,0,1.044,0.453,1.201,0.985l0.084,0.263h-8.794L357.637,162.632z    M375.229,190.103c0.059,0.199,0.047,0.374-0.032,0.479c-0.076,0.103-0.214,0.124-0.315,0.124l-9.117,0.006   c-0.213,0-0.357-0.047-0.627-0.959l-0.08-0.289h9.967L375.229,190.103z M374.604,188.163h-9.907l-0.321-1.162h9.854   L374.604,188.163z M364.016,185.7l-0.32-1.16h9.743l0.374,1.16H364.016z M363.336,183.239l-0.321-1.159h9.632l0.373,1.159H363.336z    M372.229,180.779h-9.573l-0.321-1.16h9.521L372.229,180.779z M361.975,178.318l-0.32-1.16h9.409l0.373,1.16H361.975z    M361.294,175.857l-0.32-1.159h9.298l0.373,1.159H361.294z M360.613,173.397l-0.32-1.16h9.188l0.373,1.16H360.613z    M359.934,170.937l-0.32-1.159h9.075l0.373,1.159H359.934z M368.27,168.477h-9.017l-0.321-1.16h8.965L368.27,168.477z    M367.479,166.016h-8.906l-0.32-1.16h8.853L367.479,166.016z M358.045,169.691c2.037,7.41,4.825,17.56,5.561,20.03   c0.548,1.841,0.296,2.809-0.844,3.235c-1.872,0.701-5.486,1.967-6.439,2.3L346.32,157.24c1.41,0.661,4.724,2.207,6.931,3.17   c2.515,1.096,2.515,1.096,2.789,2.013C356.15,162.796,356.987,165.839,358.045,169.691z M365.398,161.006l-7.7,0.005   c-0.208,0.001-0.843,0.001-1.209,0.493c-0.011,0.014-0.012,0.03-0.021,0.044c-0.305-0.63-0.84-0.866-2.938-1.78   c-1.751-0.764-4.208-1.899-5.848-2.663h11.942c3.865,0,5.703,0.476,7.08,3.42c0.136,0.29,0.321,0.758,0.546,1.362   C366.764,161.355,366.079,161.006,365.398,161.006z M345.561,157.104l10.054,38.217h-90.689v-38.217H345.561z M264.325,195.321   h-96.9v-38.217h96.9V195.321z M166.825,195.321h-5.741v-38.217h5.741V195.321z M160.084,195.321h-60.067v-0.651   c0-0.193-0.156-0.35-0.35-0.35h-1.959l0.029-0.199h53.694c1.797,0,3.039-0.74,3.693-2.2c0.532-1.187,0.532-2.51,0.531-3.112   l1.136-25.86c0-1.965-0.512-3.27-1.564-3.988c-0.882-0.602-1.902-0.611-2.688-0.611c-0.196-0.003-0.417,0.003-0.683,0.009   c-0.174,0.004-0.334,0.007-0.479,0.007H98.67c-2.998,0-4.732,0.698-5.986,2.41l-0.213,0.292   c-6.502,8.884-17.689,24.21-19.559,27.033c-0.082,0.124-0.147,0.245-0.219,0.366c-0.807,1.192-2.437,3.989-1.455,5.904   c0.562,1.096,1.855,1.65,3.846,1.65h17.921v1.042c0,0.035,0.011,0.067,0.021,0.1H73.935c-2.166,0-3.568-0.586-4.169-1.742   c-0.72-1.385-0.15-3.457,0.784-4.787c1.558-2.216,19.537-27.532,23.124-31.781c0.688-0.813,1.673-1.747,3.211-1.747h63.199V195.321   z M72.023,191.212c0.065,0.482,0.23,0.947,0.513,1.391c0.597,0.937,1.796,1.519,3.129,1.519h20.017l-0.01,0.199h-2.317   c-0.193,0-0.35,0.156-0.35,0.35v0.651H75.084c-1.706,0-2.791-0.428-3.223-1.271C71.477,193.301,71.621,192.272,72.023,191.212z    M98.996,186.937v-10.632c0-1.792,1.741-3.995,2.264-4.174c0.088-0.03,0.396-0.1,1.36-0.1c0.903,0,1.872,0.061,1.904,0.062   c0.063,0,0.11,0.021,0.157,0.068c0.214,0.214,0.282,0.807,0.282,1.061v14.715c0,2.65-0.625,3.026-0.588,3.033   c-0.036,0.002-0.283,0.012-0.655,0.012c-0.824,0-2.371-0.05-3.474-0.38C99.097,190.257,98.954,187.851,98.996,186.937z    M99.293,190.792l-1.945,1.724c-0.062,0.055-0.102,0.129-0.114,0.211l-0.391,2.669h-0.521l0.125-2.673l2.287-2.833   C98.872,190.232,99.055,190.544,99.293,190.792z M95.702,195.986c0.065,0.069,0.157,0.108,0.253,0.108h1.19   c0.174,0,0.321-0.127,0.347-0.299l0.113-0.776h1.712v1.693h-5.613v-1.693h1.935l-0.033,0.709   C95.601,195.824,95.636,195.918,95.702,195.986z M99.885,191.203c0.054,0.022,0.104,0.051,0.161,0.068   c1.188,0.356,2.813,0.41,3.675,0.41c0.423,0,0.691-0.013,0.737-0.018c0.283-0.051,1.205-0.471,1.205-3.728v-14.713   c0.001-0.109-0.009-1.077-0.484-1.556c-0.179-0.18-0.403-0.274-0.63-0.274h-0.002c-0.041-0.002-1-0.063-1.927-0.063   c-1.063,0-1.415,0.078-1.587,0.138c-0.855,0.293-2.736,2.822-2.736,4.836v10.615c-0.004,0.081-0.045,1.114,0.189,2.162   l-1.254,1.553l-0.848-0.795v-29.752c0.613-0.141,1.348-0.224,2.285-0.224h52.707c0.155,0,0.327-0.003,0.579-0.009   c0.171-0.003,0.354-0.007,0.579-0.007c0.616-0.021,1.334-0.001,1.847,0.351c0.604,0.412,0.91,1.337,0.911,2.716l-1.136,25.86   c0,0.532,0,1.639-0.401,2.532c-0.407,0.908-1.124,1.313-2.324,1.313H98.284L99.885,191.203z M95.686,192.621h-1.102v-31.706   c0.297-0.248,0.66-0.454,1.102-0.621V192.621z M93.885,187.496l-5.654-5.303c-0.504-0.472-1.296-0.445-1.768,0.057   c-0.473,0.504-0.446,1.295,0.057,1.768l7.338,6.88l0.027,0.025v1.698h-18.22c-0.801,0-1.55-0.332-1.864-0.825   c-0.324-0.508-0.639-1.356,0.361-2.868c1.374-2.073,8.306-11.653,19.519-26.976l0.204-0.277V187.496z M100.017,197.063v-1.042   h60.067v1.142H99.996C100.006,197.13,100.017,197.098,100.017,197.063z M161.084,198.162h5.741v10.176h-5.741V198.162z    M166.825,209.037v5.051h-5.741v-5.051H166.825z M166.825,214.787v34.114h-5.751v-17.556c0.001-0.012,0.01-0.021,0.01-0.033   v-16.525H166.825z M160.375,248.901h-7.264c-1.904-4.19-3.883-6.02-6.472-8.104c-2.296-1.848-5.467-2.947-8.753-3.61h10.672   c0.07,0,0.14-0.015,0.204-0.044l11.612-5.19V248.901z M160.375,249.601v1.261h-6.447c-0.17-0.443-0.341-0.86-0.512-1.261H160.375z    M161.074,251.561h5.751v17.59h-5.751V251.561z M167.425,251.561h96.9v17.59h-96.9V251.561z M291.151,250.861h-26.227v-1.261   h26.954C291.637,250.006,291.394,250.423,291.151,250.861z M264.925,214.088v-5.051h95.736v5.051H264.925z M264.325,156.104h-96.9   v-1.167h96.9V156.104z M166.825,156.104h-5.741v-1.167h5.741V156.104z M160.084,156.104H96.885c-1.972,0-3.213,1.2-3.975,2.103   c-3.609,4.274-21.619,29.632-23.179,31.852c-1.074,1.528-1.799,4.002-0.854,5.823c0.541,1.04,1.856,2.28,5.057,2.28h86.149v10.176   H62.851l0.321-11.591c0.333-2.294,1.34-3.434,1.437-3.543l28.624-38.295c0.04,0.01,0.078,0.028,0.121,0.028h66.73V156.104z    M62.934,214.787h97.15v16.201l-11.632,5.199h-23.485h-0.064h-3.673c-3.875-0.021-11.009-0.004-17.525,4.592   c-2.152,1.517-4.591,3.686-6.9,8.172H64.373C63.461,235.466,63.086,222.441,62.934,214.787z M95.615,251.511   c-0.084,0.2-0.169,0.394-0.253,0.602c-0.124,0.309-0.245,0.624-0.363,0.943c-0.041,0.111-0.081,0.226-0.121,0.338   c-0.076,0.211-0.151,0.422-0.225,0.637c-0.046,0.133-0.09,0.267-0.134,0.4c-0.066,0.198-0.131,0.396-0.194,0.596   c-0.045,0.139-0.089,0.278-0.132,0.418c-0.062,0.198-0.121,0.396-0.18,0.593c-0.041,0.137-0.082,0.271-0.121,0.407   c-0.062,0.211-0.12,0.42-0.179,0.629c-0.034,0.121-0.069,0.242-0.102,0.362c-0.076,0.275-0.148,0.548-0.22,0.817   c-0.023,0.092-0.047,0.182-0.07,0.272c-0.07,0.271-0.139,0.537-0.203,0.798c-0.029,0.118-0.057,0.231-0.084,0.348   c-0.046,0.188-0.092,0.375-0.135,0.557c-0.028,0.121-0.055,0.237-0.083,0.355c-0.04,0.173-0.079,0.342-0.116,0.508   c-0.024,0.107-0.048,0.213-0.071,0.316c-0.038,0.17-0.073,0.332-0.108,0.492c-0.02,0.09-0.039,0.179-0.057,0.266   c-0.039,0.18-0.074,0.35-0.108,0.515c-0.011,0.051-0.022,0.105-0.032,0.155c-0.09,0.434-0.163,0.807-0.22,1.1   c-0.005,0.028-0.009,0.051-0.015,0.077c-0.016,0.081-0.031,0.166-0.044,0.233l-26.549-1.604c-0.362-3.653-0.675-7.397-0.945-11.131   H95.615z M156.795,272.813c-0.009-0.572-0.029-1.618-0.078-2.963h3.658v2.963H156.795z M161.074,269.85h5.751v2.963h-5.751V269.85z    M167.425,269.85h96.9v2.963h-96.9V269.85z M264.925,269.85h20.806c-0.126,1.37-0.173,2.403-0.189,2.963h-20.616V269.85z    M356.568,266.687c-0.167-1.336-1.067-7.986-3.086-13.849c-0.152-0.442-0.32-0.856-0.485-1.277h7.664v14.843   C359.155,266.513,357.765,266.607,356.568,266.687z M386.189,253.663c0.107-0.331,0.216-0.662,0.32-0.995h3.263l-0.319,0.995   H386.189z M389.172,251.668h-2.357c0.526-1.748,1.003-3.519,1.435-5.294h2.364C390.168,248.163,389.685,249.929,389.172,251.668z    M390.853,245.374h-2.362c0.369-1.579,0.703-3.156,1.007-4.716h2.401C391.578,242.24,391.228,243.813,390.853,245.374z    M392.669,239.658h-2.983c2.254-12.068,2.643-22.854,2.697-24.871h2.71C395.132,216.689,395.193,226.673,392.669,239.658z    M394.193,214.088h-2.635v-5.051h2.635V214.088z M394.764,208.338h-2.875c-0.158-2.54-0.385-4.404-2.014-9.528   c-0.225-0.706-0.454-1.401-0.688-2.091c0.67,0.026,1.645,0,2.541-0.04C392.324,198.011,394.653,203.522,394.764,208.338z    M388.83,195.695c-0.313-0.894-0.631-1.782-0.96-2.663h1.589c0.342,0.878,0.689,1.771,1.041,2.686   C389.711,195.736,389.048,195.732,388.83,195.695z M389.069,192.032h-1.577c-1.166-3.063-2.429-6.115-3.804-9.43   c-0.984-2.375-2.019-4.866-3.098-7.565c-1.886-4.714-5.026-11.443-7.32-16.357c-0.615-1.319-1.176-2.521-1.645-3.536   c-0.035-0.076-0.065-0.134-0.1-0.206h1.455C374.977,158.707,380.164,169.243,389.069,192.032z M373.46,153.938H93.604l-0.664-0.883   h279.99L373.46,153.938z M249.779,135.84l-5.321-13.822h1.435l5.383,13.822l0.39,1l4.957,12.728h-1.558l-4.899-12.728   L249.779,135.84z M229.446,89.671l12.798,32.127c0.053,0.133,0.182,0.22,0.325,0.22h1.14l5.321,13.822h-52.752l10.468-55.322   L229.446,89.671z M231.588,90.535l0.887,0.357l1.537,0.619l0.891,0.359l1.202,0.485l10.893,28.962h-0.626h-0.751h-1.431h-0.75   h-0.633l-12.462-31.285L231.588,90.535z M362.75,152.055c-0.033-0.13-0.088-0.254-0.19-0.354l-2.765-2.692   c3.647,0.724,4.502,2.444,4.693,3.047H362.75z M360.773,152.055H327.26l4.854-3.372h23.94c0.458,0,0.885,0.015,1.295,0.036   L360.773,152.055z M324.963,152.055h-3.611c1.898-2.83,6.619-3.368,6.633-3.372h1.5l-4.23,2.938   C325.1,151.729,325.006,151.886,324.963,152.055z M356.055,147.983l-22.936,0.002l13.704-9.519l9.788,9.533   C356.422,147.996,356.252,147.983,356.055,147.983z M345.354,137.036l0.374,0.364l-15.24,10.585h-2.54   c-0.226,0.023-5.52,0.616-7.427,4.069h-57.147l-1.864-2.354c-0.066-0.084-0.167-0.133-0.274-0.133h-3.862l-4.957-12.728h35.889   c0.229,0,0.43-0.156,0.485-0.379l5.191-20.768l51.179,20.636C345.103,136.577,345.159,136.846,345.354,137.036z M287.914,135.84   h-35.887l-5.384-13.822h0.859c0.115,0,0.223-0.056,0.288-0.15s0.08-0.215,0.039-0.322l-10.846-28.834l56.061,22.604L287.914,135.84   z M261.066,150.267l1.415,1.788H250.57l1.186-1.788H261.066z M371.514,152.055h-6.299c-0.131-0.646-0.979-3.21-6.295-3.899   l-10.853-10.57c0.021-0.019,0.038-0.04,0.058-0.061l15.674,6.32l-0.021,0.034C368.354,146.742,370.7,150.524,371.514,152.055z    M348.393,118.822l-3.535,8.835l-61.073-24.665l3.585-8.915L348.393,118.822z M278.618,90.422l-3.651,9.009l-81.391-32.872   l3.63-8.984L278.618,90.422z M183.413,51.132l1.044-0.627l11.962,4.832l0.171,1.896l-3.794,9.389   c-0.035,0.086-0.034,0.183,0.002,0.268c0.036,0.086,0.105,0.153,0.191,0.188l82.048,33.138c0.042,0.018,0.086,0.025,0.129,0.025   c0.133,0,0.259-0.078,0.317-0.208c0.009-0.021,0.017-0.042,0.021-0.064l3.797-9.366l1.611-1.14l5.687,2.298l0.149,1.982   l-3.745,9.313c-0.071,0.18,0.016,0.383,0.194,0.455l61.723,24.928c0.042,0.018,0.086,0.025,0.131,0.025   c0.047,0,0.094-0.009,0.138-0.027c0.085-0.037,0.152-0.105,0.188-0.192l3.709-9.271l1.769-1.262   c1.642,0.668,10.689,4.349,12.522,5.057c1.935,0.746,3.352,2.702,4.211,5.812c1.078,3.901,1.907,11.981,2.107,14.047   l-191.931-77.51L183.413,51.132z M176.849,67.385l0.654-1.62l192.265,77.645l0.001,0.005l0.99,0.418l0.099,1.781L348,136.396   l-0.281-0.113L176.849,67.385z M179.564,69.558l26.236,10.579l-10.617,56.11c-0.027,0.146,0.011,0.297,0.106,0.412   c0.095,0.114,0.236,0.181,0.385,0.181h53.741l4.899,12.728h-2.747c-0.117,0-0.227,0.059-0.292,0.156l-1.547,2.331h-87.047v-16.658   C171.96,118.509,178.639,75.72,179.564,69.558z M161.683,134.812v17.243h-0.562v-17.243H161.683z M97.445,136.095l62.676-2.14   v9.965H97.064l-3.917-1.378L97.445,136.095z M92.746,143.143l4.143,1.457c0.037,0.014,0.076,0.02,0.116,0.02h63.116v7.436H92.066   c0.1-0.126,0.17-0.216,0.18-0.229c0.499-0.665,0.684-1.143,0.615-1.597c-0.072-0.484-0.416-0.734-0.629-0.885   c-0.18-0.224-0.996-0.834-2.415-1.807L92.746,143.143z M88.524,148.471c1.159,0.789,2.367,1.644,2.536,1.811   c0.076,0.095,0.158,0.167,0.252,0.241c-0.046,0.086-0.124,0.214-0.258,0.392c-0.212,0.272-21.385,27.417-32.457,39.875   c-0.546,0.614-1.121,0.627-1.169,0.627h-0.001H50.91C65.046,172.828,85.181,151.914,88.524,148.471z M49.779,192.916l7.51-0.001   c-0.574,0.592-1.092,1.09-1.47,1.388c-1.546,1.218-2.313,1.216-3.802,1.206l-4.146-0.001   C48.491,194.651,49.128,193.787,49.779,192.916z M46.44,196.508l5.572,0.001c1.571,0.014,2.604,0.013,4.426-1.421   c0.761-0.599,1.996-1.893,3.208-3.231c0.023-0.025,0.049-0.045,0.072-0.071c0.128-0.144,0.264-0.3,0.395-0.447   c1.039-1.163,2.015-2.3,2.596-2.984c6.777-7.901,15.727-19.049,21.994-26.95l-31.239,41.751c-0.04,0.058-4.003,5.701-9.922,5.701   H36.86C39.534,204.719,45.428,197.706,46.44,196.508z M40.206,249.601h4.452c0.193,0,0.35-0.156,0.35-0.35   c0-0.018-0.008-0.033-0.01-0.05h0.017l-2.038-12.188h9.212l4.097,12.333c0.041,0.122,0.156,0.205,0.285,0.205h6.842   c0.03,0.453,0.063,0.906,0.095,1.36H40.431L40.206,249.601z M39.657,251.511H63.55c0.283,3.911,0.611,7.835,0.995,11.654   c0.003,0.028,0.016,0.052,0.022,0.078l0.245,3.409c-2.332-0.244-4.345-0.497-5.838-0.751v-9.472c0-0.975-0.792-1.767-1.767-1.767   H40.709c-0.146,0-0.284,0.022-0.42,0.056L39.657,251.511z M34.881,267.27c-0.529,0-0.961-0.431-0.961-0.969l-0.254-9.348   c0-0.529,0.431-0.96,0.96-0.96h4.38c-0.037,0.144-0.063,0.291-0.063,0.446l0.284,10.394c0,0.151,0.025,0.296,0.061,0.437H34.881z    M39.926,266.823l-0.284-10.394c0-0.588,0.479-1.067,1.067-1.067h16.499c0.588,0,1.067,0.479,1.067,1.067v10.403   c0,0.588-0.479,1.067-1.067,1.067H40.993C40.405,267.9,39.926,267.421,39.926,266.823z M124.592,296.685   c-14.047,0-25.476-11.428-25.476-25.475c0-14.046,11.429-25.473,25.476-25.473s25.475,11.427,25.475,25.473   C150.066,285.257,138.639,296.685,124.592,296.685z M322.758,296.685c-14.047,0-25.476-11.428-25.476-25.475   c0-14.046,11.429-25.473,25.476-25.473c14.046,0,25.474,11.427,25.474,25.473C348.231,285.257,336.804,296.685,322.758,296.685z    M364.369,270.81c-0.131,0.012-12.308,1.155-15.236,1.29c0.01-0.296,0.022-0.591,0.022-0.89c0-14.556-11.842-26.396-26.397-26.396   c-14.557,0-26.399,11.841-26.399,26.396c0,2.227,0.28,4.388,0.802,6.454l-40.399,0.009l-10.968-2.566h-31.468   c-1.626,0-2.855,0.658-4.044,1.294c-1.216,0.649-2.364,1.264-3.947,1.264c-20.544,0-43.864-1.686-52.643-2.319   c-1.395-0.102-2.402-0.174-2.994-0.211c0.191-1.281,0.293-2.591,0.293-3.924c0-14.556-11.842-26.396-26.398-26.396   s-26.399,11.841-26.399,26.396c0,1.18,0.086,2.339,0.236,3.478c-3.567-0.1-35.019-2.22-48.919-4.45l-0.788-1.638h8.486   c0.975,0,1.767-0.792,1.767-1.767v-0.254c8.975,1.498,36.055,2.946,36.332,2.961c0.19,0.044,0.338-0.128,0.351-0.31   c0.005-0.075,0.551-7.57,3.043-14.103c2.212-5.792,4.823-8.213,7.316-9.968c5.729-4.036,12.067-4.039,15.499-4.032h3.397   c0.017,0,0.034,0,0.051,0c4.29,0,14.21,0.016,19.193,4.02c2.371,1.908,4.611,3.711,6.816,9.972   c1.872,5.323,2.337,16.479,2.401,18.331v0.362H290.25v-1h-0.002c0.1-2.218,0.716-10.67,4.417-17.9   c2.93-5.726,6.025-8.344,8.395-9.985c5.31-3.681,14.935-3.681,19.058-3.681h3.078c3.145,0,10.51,0,16.28,3.934   c3.845,2.619,6.343,5.896,7.862,10.313c1.962,5.698,2.735,11.749,2.743,11.81c0.021,0.161,0.173,0.274,0.325,0.271   c0.166-0.01,16.411-0.963,25.037-2.097v0.357c0,0.975,0.792,1.767,1.766,1.767h1.467c0.041,0.153,0.106,0.354,0.202,0.575   L364.369,270.81z M397.69,269.773h-13.189c-2.256,0-2.97-1.458-3.187-2.174h14.109c0.574,0,1.079-0.278,1.402-0.701h0.864V269.773z    M399.949,265.31c0,0.529-0.432,0.96-0.961,0.96h-1.856c0.035-0.138,0.06-0.279,0.06-0.427l0.283-10.413   c0-0.151-0.025-0.296-0.061-0.437h1.828c0.529,0,0.961,0.431,0.961,0.951L399.949,265.31z"/><path d="M45.531,227.855l-0.003-14.082c-0.065-0.516-0.337-1.119-0.883-1.119c-0.399,0-0.809,0.332-1.288,1.044   c-1.231,1.833-1.246,6.921-1.246,7.137s0.015,5.303,1.246,7.137c0.479,0.712,0.889,1.044,1.288,1.044   C45.191,229.016,45.462,228.412,45.531,227.855z M44.646,228.371c-0.01,0-0.249-0.009-0.753-0.759   c-0.834-1.241-1.137-4.733-1.137-6.777c0-2.045,0.303-5.537,1.137-6.777c0.504-0.75,0.743-0.759,0.753-0.759   c0.073,0,0.207,0.275,0.241,0.516l0.003,13.999C44.853,228.096,44.718,228.371,44.646,228.371z"/><path d="M124.592,250.312c-11.523,0-20.898,9.375-20.898,20.898c0,11.524,9.375,20.9,20.898,20.9s20.899-9.376,20.899-20.9   C145.491,259.687,136.115,250.312,124.592,250.312z M124.592,291.444c-11.156,0-20.232-9.077-20.232-20.234   c0-11.156,9.076-20.232,20.232-20.232c11.157,0,20.233,9.076,20.233,20.232C144.825,282.367,135.749,291.444,124.592,291.444z"/><path d="M124.592,254.21c-9.373,0-16.999,7.626-16.999,17c0,9.375,7.626,17.002,16.999,17.002c9.374,0,17.001-7.627,17.001-17.002   C141.593,261.836,133.966,254.21,124.592,254.21z M124.592,287.745c-9.116,0-16.532-7.418-16.532-16.535   c0-9.116,7.416-16.533,16.532-16.533c9.117,0,16.534,7.417,16.534,16.533C141.126,280.327,133.709,287.745,124.592,287.745z"/><path d="M124.592,256.55c-8.085,0-14.662,6.577-14.662,14.66c0,8.085,6.577,14.662,14.662,14.662c8.083,0,14.66-6.577,14.66-14.662   C139.252,263.127,132.675,256.55,124.592,256.55z M131.486,259.355c-0.099,0.092-0.22,0.169-0.361,0.227   c-0.479,0.196-1.104,0.171-1.68-0.068c-0.984-0.406-1.555-1.298-1.276-1.984c1.269,0.332,2.466,0.832,3.569,1.481   c-0.004,0.011-0.015,0.019-0.02,0.028C131.663,259.157,131.586,259.264,131.486,259.355z M126.523,257.201   c-0.004,0.742-0.868,1.347-1.932,1.347s-1.928-0.604-1.932-1.347c0.634-0.087,1.275-0.147,1.932-0.147   S125.89,257.114,126.523,257.201z M121.011,257.53c0.21,0.516-0.057,1.145-0.616,1.597c-0.187,0.151-0.406,0.284-0.652,0.386   c-0.984,0.406-2.012,0.18-2.299-0.501C118.547,258.362,119.743,257.862,121.011,257.53z M116.049,259.948   c0.016,0.017,0.025,0.037,0.041,0.055c0.396,0.473,0.305,1.281-0.205,1.962c-0.076,0.102-0.161,0.2-0.255,0.294   c-0.371,0.372-0.823,0.616-1.271,0.689c-0.426,0.065-0.792-0.027-1.039-0.269C114.102,261.649,115.019,260.731,116.049,259.948z    M112.383,264.076c0.446,0.191,0.696,0.697,0.701,1.3c0.002,0.201-0.023,0.412-0.078,0.626c-0.031,0.122-0.072,0.246-0.123,0.369   c-0.406,0.979-1.289,1.544-1.977,1.272C111.237,266.376,111.735,265.18,112.383,264.076z M111.274,269.584   c0.047,0.041,0.091,0.089,0.133,0.138c0.028,0.032,0.058,0.063,0.084,0.099c0.038,0.051,0.071,0.108,0.104,0.165   c0.025,0.042,0.051,0.081,0.073,0.126c0.03,0.061,0.055,0.127,0.079,0.192c0.019,0.048,0.039,0.094,0.055,0.143   c0.023,0.076,0.039,0.156,0.055,0.236c0.01,0.046,0.023,0.09,0.03,0.137c0.019,0.13,0.03,0.264,0.03,0.401   c0,1.06-0.599,1.921-1.335,1.934c-0.088-0.638-0.149-1.283-0.149-1.944c0-0.648,0.059-1.281,0.144-1.906   c0.025,0,0.052-0.004,0.076-0.001c0.034,0.003,0.067,0.008,0.102,0.015c0.061,0.012,0.12,0.03,0.178,0.054   c0.031,0.013,0.063,0.026,0.094,0.042c0.055,0.028,0.107,0.063,0.159,0.102C111.215,269.537,111.246,269.559,111.274,269.584z    M111.16,274.74h0.012c0.08-0.008,0.161-0.006,0.244,0.005c0.015,0.002,0.029,0.006,0.043,0.009   c0.073,0.013,0.146,0.03,0.221,0.058c0.018,0.006,0.035,0.015,0.053,0.021c0.071,0.029,0.143,0.063,0.213,0.105   c0.015,0.009,0.029,0.019,0.044,0.027c0.132,0.084,0.257,0.186,0.372,0.304c0.013,0.015,0.025,0.03,0.038,0.044   c0.114,0.123,0.22,0.259,0.31,0.411c0.064,0.108,0.123,0.225,0.174,0.347c0.402,0.976,0.182,1.997-0.487,2.293   c-0.649-1.102-1.149-2.297-1.482-3.563C110.992,274.77,111.075,274.75,111.16,274.74z M113.331,279.757   c0.017-0.016,0.036-0.026,0.054-0.04c0.045-0.036,0.088-0.075,0.138-0.103c0.037-0.021,0.08-0.033,0.12-0.049   c0.044-0.018,0.086-0.039,0.134-0.052c0.056-0.014,0.116-0.019,0.177-0.025c0.035-0.003,0.068-0.012,0.104-0.013   c0.111-0.004,0.228,0.011,0.345,0.032c0.052,0.01,0.103,0.025,0.153,0.039c0.074,0.021,0.149,0.044,0.225,0.073   c0.049,0.02,0.098,0.042,0.146,0.065c0.082,0.039,0.161,0.085,0.24,0.135c0.041,0.026,0.083,0.05,0.123,0.079   c0.117,0.084,0.232,0.176,0.34,0.284c0.744,0.743,0.931,1.769,0.432,2.299C115.031,281.701,114.113,280.785,113.331,279.757z    M117.656,283.139c0.014-0.014,0.02-0.031,0.033-0.044c0.101-0.094,0.224-0.172,0.368-0.232c0.474-0.195,1.104-0.171,1.683,0.069   c0.973,0.402,1.538,1.278,1.278,1.962c-1.266-0.331-2.461-0.829-3.563-1.476C117.502,283.313,117.575,283.224,117.656,283.139z    M122.664,285.222c0.01-0.341,0.2-0.664,0.542-0.912c0.368-0.266,0.858-0.412,1.382-0.412h0.005c1.053,0,1.909,0.594,1.929,1.323   c-0.633,0.087-1.273,0.147-1.93,0.147C123.937,285.368,123.296,285.308,122.664,285.222z M128.168,284.893   c-0.154-0.407-0.017-0.878,0.322-1.279c0.016-0.019,0.027-0.037,0.043-0.056c0.009-0.01,0.021-0.018,0.029-0.027   c0.227-0.24,0.524-0.451,0.879-0.598c0.971-0.403,1.992-0.184,2.291,0.482C130.629,284.063,129.434,284.562,128.168,284.893z    M133.124,282.48c-0.005-0.004-0.007-0.01-0.011-0.015c-0.049-0.054-0.095-0.11-0.13-0.174c-0.026-0.048-0.044-0.102-0.063-0.155   c-0.011-0.031-0.027-0.062-0.036-0.095c-0.02-0.077-0.03-0.16-0.035-0.245c0-0.012-0.004-0.022-0.004-0.033   c-0.004-0.099,0.004-0.201,0.021-0.308c0.024-0.151,0.074-0.302,0.136-0.45c0.014-0.033,0.027-0.066,0.043-0.1   c0.07-0.146,0.151-0.292,0.254-0.429c0.075-0.101,0.16-0.198,0.254-0.292c0.742-0.743,1.767-0.934,2.301-0.433   C135.07,280.782,134.153,281.699,133.124,282.48z M136.788,278.362c-0.076-0.034-0.148-0.075-0.213-0.127   c-0.5-0.403-0.631-1.301-0.275-2.16c0.405-0.979,1.29-1.543,1.97-1.279C137.938,276.063,137.438,277.259,136.788,278.362z    M137.391,272.024c-0.006-0.018-0.014-0.032-0.019-0.049c-0.031-0.106-0.055-0.219-0.073-0.334   c-0.001-0.01-0.004-0.019-0.006-0.028c-0.018-0.126-0.027-0.256-0.027-0.389c0-1.06,0.6-1.922,1.336-1.935   c0.086,0.63,0.146,1.268,0.146,1.92c0,0.66-0.062,1.306-0.149,1.942C138.063,273.141,137.602,272.681,137.391,272.024z    M138.223,267.658c-0.077,0.025-0.156,0.041-0.238,0.048c-0.041,0.003-0.082-0.004-0.123-0.006   c-0.043-0.002-0.086,0.001-0.129-0.006c-0.082-0.013-0.164-0.035-0.247-0.066c-0.004-0.002-0.008-0.002-0.012-0.003   c-0.087-0.034-0.174-0.077-0.261-0.131c-0.388-0.238-0.711-0.636-0.911-1.119c-0.405-0.98-0.181-2.01,0.496-2.301   c0.647,1.104,1.146,2.302,1.478,3.57C138.258,267.651,138.24,267.653,138.223,267.658z M135.998,266.5   c0.227,0.548,0.597,1.001,1.043,1.274c0.289,0.179,0.589,0.269,0.875,0.269c0.152,0,0.299-0.035,0.439-0.086   c0.079,0.333,0.143,0.671,0.197,1.012c-0.896,0.049-1.615,1.038-1.615,2.256c0,0.598,0.177,1.138,0.459,1.542   c0.012,0.018,0.021,0.037,0.033,0.054c0.036,0.049,0.079,0.088,0.118,0.132c0.044,0.049,0.084,0.103,0.13,0.145   c0.018,0.016,0.037,0.025,0.055,0.04c0.166,0.14,0.349,0.246,0.546,0.301c0.014,0.004,0.028,0.002,0.041,0.006   c0.075,0.018,0.152,0.027,0.229,0.031c-0.055,0.34-0.119,0.676-0.197,1.007c-0.855-0.298-1.892,0.346-2.354,1.469   c-0.418,1.007-0.232,2.07,0.396,2.558c0.068,0.054,0.146,0.094,0.227,0.133c-0.181,0.291-0.37,0.575-0.571,0.853   c-0.672-0.59-1.872-0.396-2.728,0.46c-0.109,0.108-0.207,0.223-0.294,0.341c-0.015,0.021-0.026,0.043-0.041,0.064   c-0.069,0.1-0.136,0.201-0.19,0.305c-0.006,0.012-0.01,0.025-0.017,0.037c-0.058,0.114-0.108,0.229-0.146,0.346   c-0.001,0.004-0.002,0.007-0.003,0.01c-0.037,0.115-0.069,0.231-0.088,0.348c-0.005,0.029-0.002,0.057-0.006,0.086   c-0.002,0.018-0.002,0.034-0.003,0.052c-0.012,0.127-0.01,0.249,0.005,0.366c0.002,0.021,0.005,0.041,0.008,0.063   c0.019,0.111,0.048,0.217,0.088,0.316c0.01,0.022,0.017,0.046,0.026,0.068c0.055,0.115,0.119,0.225,0.203,0.32   c0,0.001,0.001,0.001,0.001,0.001c-0.277,0.201-0.563,0.39-0.854,0.57c-0.396-0.8-1.577-1.08-2.694-0.617   c-1.12,0.462-1.756,1.499-1.464,2.345c-0.332,0.079-0.668,0.144-1.009,0.198c-0.056-0.891-1.04-1.603-2.25-1.603h-0.006   c-0.592,0-1.15,0.168-1.573,0.475c-0.417,0.301-0.648,0.701-0.672,1.128c-0.34-0.055-0.677-0.118-1.008-0.197   c0.29-0.846-0.349-1.883-1.468-2.346c-0.493-0.206-1.022-0.271-1.491-0.194c-0.155,0.025-0.305,0.066-0.443,0.124   c-0.148,0.062-0.275,0.143-0.385,0.238c-0.108,0.096-0.199,0.205-0.276,0.323c-0.028,0.045-0.067,0.083-0.09,0.131   c-0.294-0.182-0.58-0.372-0.859-0.573c0.589-0.67,0.396-1.871-0.46-2.727c-0.108-0.108-0.223-0.206-0.342-0.294   c-0.021-0.016-0.047-0.028-0.069-0.044c-0.098-0.067-0.196-0.133-0.298-0.187c-0.021-0.011-0.043-0.018-0.064-0.027   c-0.105-0.052-0.211-0.1-0.316-0.135c-0.021-0.008-0.043-0.01-0.064-0.017c-0.099-0.03-0.197-0.06-0.297-0.075   c-0.008-0.001-0.015,0-0.022-0.002c-0.015-0.002-0.028,0-0.042-0.002c-0.471-0.063-0.883,0.049-1.187,0.309   c-0.007,0.007-0.017,0.012-0.023,0.018c-0.201-0.276-0.391-0.562-0.571-0.854c0.802-0.392,1.085-1.576,0.621-2.695   c-0.059-0.143-0.128-0.277-0.204-0.403c-0.009-0.015-0.021-0.027-0.029-0.042c-0.069-0.111-0.144-0.218-0.224-0.314   c-0.005-0.006-0.011-0.01-0.016-0.016c-0.087-0.103-0.179-0.197-0.275-0.28c-0.003-0.003-0.007-0.005-0.01-0.008   c-0.092-0.078-0.186-0.151-0.284-0.212c-0.008-0.005-0.016-0.007-0.022-0.012c-0.012-0.007-0.023-0.01-0.035-0.017   c-0.233-0.134-0.471-0.21-0.703-0.229c-0.188-0.017-0.374,0.007-0.552,0.07c-0.079-0.332-0.144-0.669-0.198-1.009   c0.895-0.049,1.613-1.038,1.613-2.255c0-0.257-0.032-0.504-0.092-0.733c-0.021-0.08-0.062-0.145-0.088-0.22   c-0.051-0.141-0.096-0.287-0.166-0.41c-0.217-0.378-0.521-0.661-0.871-0.798c-0.129-0.05-0.262-0.083-0.4-0.09   c0.055-0.342,0.118-0.68,0.197-1.014c0.141,0.051,0.286,0.085,0.436,0.085c0.743,0,1.535-0.605,1.924-1.545   c0.059-0.141,0.105-0.282,0.141-0.423c0.246-0.986-0.063-1.938-0.773-2.275c0.182-0.295,0.372-0.581,0.574-0.86   c0.254,0.231,0.584,0.361,0.967,0.361c0.103,0,0.209-0.009,0.316-0.026c0.517-0.084,1.032-0.361,1.452-0.781   c0.86-0.86,1.051-2.068,0.446-2.738c0.279-0.201,0.565-0.393,0.859-0.574c0.258,0.549,0.877,0.862,1.604,0.862   c0.353,0,0.729-0.073,1.096-0.226c0.443-0.184,0.811-0.458,1.076-0.774c0.411-0.488,0.572-1.077,0.383-1.592   c0.334-0.079,0.672-0.144,1.014-0.198c0.038,0.9,1.03,1.625,2.252,1.625c0.156,0,0.308-0.012,0.455-0.034   c0.252-0.038,0.487-0.108,0.7-0.203c0.64-0.284,1.072-0.799,1.098-1.388c0.341,0.055,0.677,0.119,1.01,0.197   c-0.308,0.852,0.336,1.903,1.465,2.369c0.358,0.149,0.736,0.225,1.096,0.225h0.001h0.001c0.298,0,0.583-0.052,0.834-0.155   c0.174-0.072,0.318-0.171,0.445-0.284c0.012-0.01,0.031-0.016,0.043-0.027c0.035-0.033,0.05-0.08,0.081-0.116   c0.074-0.088,0.146-0.177,0.194-0.28c0.293,0.182,0.579,0.372,0.858,0.574c-0.604,0.669-0.412,1.882,0.45,2.742   c0.418,0.419,0.934,0.695,1.45,0.778c0.107,0.017,0.212,0.025,0.313,0.025c0.192,0,0.372-0.033,0.535-0.095   c0.163-0.061,0.309-0.15,0.435-0.266c0.201,0.278,0.391,0.564,0.572,0.858C135.819,264.185,135.533,265.376,135.998,266.5z    M135.657,262.833c-0.226,0.124-0.51,0.166-0.832,0.115c-0.449-0.072-0.9-0.315-1.27-0.686c-0.753-0.75-0.938-1.789-0.425-2.316   c1.031,0.783,1.949,1.702,2.732,2.734C135.802,262.74,135.732,262.791,135.657,262.833z"/><path d="M124.592,259.817c-6.282,0-11.394,5.111-11.394,11.393c0,6.282,5.111,11.394,11.394,11.394   c6.281,0,11.392-5.111,11.392-11.394C135.983,264.929,130.873,259.817,124.592,259.817z M124.592,282.086   c-5.997,0-10.876-4.879-10.876-10.876s4.879-10.875,10.876-10.875c5.996,0,10.874,4.878,10.874,10.875   S130.588,282.086,124.592,282.086z"/><path d="M124.592,267.172c-2.152,0-3.901,1.695-4.018,3.818h-6.423v0.231c0,5.762,4.688,10.449,10.448,10.449   c5.762,0,10.449-4.688,10.449-10.449v-0.231h-6.438C128.494,268.867,126.744,267.172,124.592,267.172z M124.592,267.635   c1.974,0,3.578,1.604,3.578,3.575c0,1.974-1.604,3.578-3.578,3.578c-1.973,0-3.577-1.604-3.577-3.578   C121.015,269.238,122.619,267.635,124.592,267.635z M124.6,281.208c-5.429,0-9.859-4.354-9.983-9.755h5.96   c0.129,2.112,1.871,3.798,4.016,3.798s3.888-1.686,4.017-3.798h5.976C134.46,276.854,130.029,281.208,124.6,281.208z"/><path d="M322.758,250.312c-11.523,0-20.899,9.375-20.899,20.898c0,11.524,9.376,20.9,20.899,20.9s20.899-9.376,20.899-20.9   C343.657,259.687,334.281,250.312,322.758,250.312z M322.758,291.444c-11.157,0-20.233-9.077-20.233-20.234   c0-11.156,9.076-20.232,20.233-20.232s20.233,9.076,20.233,20.232C342.991,282.367,333.915,291.444,322.758,291.444z"/><path d="M322.758,254.21c-9.373,0-16.999,7.626-16.999,17c0,9.375,7.626,17.002,16.999,17.002c9.374,0,17.001-7.627,17.001-17.002   C339.759,261.836,332.132,254.21,322.758,254.21z M322.758,287.745c-9.116,0-16.532-7.418-16.532-16.535   c0-9.116,7.416-16.533,16.532-16.533c9.117,0,16.534,7.417,16.534,16.533C339.292,280.327,331.875,287.745,322.758,287.745z"/><path d="M322.758,256.55c-8.085,0-14.662,6.577-14.662,14.66c0,8.085,6.577,14.662,14.662,14.662c8.083,0,14.66-6.577,14.66-14.662   C337.418,263.127,330.841,256.55,322.758,256.55z M329.291,259.582c-0.478,0.196-1.104,0.171-1.68-0.068   c-0.985-0.405-1.557-1.298-1.275-1.984c1.268,0.332,2.465,0.832,3.568,1.481c-0.031,0.074-0.089,0.135-0.139,0.199   C329.647,259.362,329.499,259.496,329.291,259.582z M324.691,257.202c-0.004,0.649-0.666,1.192-1.545,1.318   c-0.126,0.018-0.256,0.027-0.389,0.027c-1.063,0-1.928-0.604-1.932-1.347c0.634-0.087,1.275-0.147,1.932-0.147   C323.415,257.054,324.057,257.114,324.691,257.202z M319.177,257.53c0.21,0.516-0.057,1.145-0.616,1.597   c-0.187,0.151-0.406,0.284-0.652,0.386c-0.985,0.406-2.012,0.18-2.299-0.501C316.713,258.362,317.909,257.862,319.177,257.53z    M314.214,259.948c0.189,0.195,0.284,0.458,0.291,0.749c0.002,0.098-0.005,0.198-0.022,0.3c-0.001,0.006-0.001,0.011-0.002,0.017   c-0.016,0.093-0.043,0.188-0.075,0.282c-0.005,0.013-0.006,0.024-0.01,0.037c-0.031,0.087-0.073,0.174-0.117,0.26   c-0.01,0.02-0.017,0.04-0.026,0.061c-0.054,0.097-0.116,0.193-0.186,0.287c-0.006,0.008-0.01,0.017-0.016,0.024   c-0.076,0.102-0.16,0.2-0.255,0.294c-0.747,0.748-1.778,0.938-2.312,0.422C312.268,261.649,313.184,260.731,314.214,259.948z    M310.549,264.076c0.168,0.071,0.309,0.191,0.422,0.349c0.1,0.141,0.179,0.311,0.226,0.509c0.063,0.268,0.063,0.561,0.013,0.857   c-0.032,0.193-0.082,0.389-0.161,0.58c-0.405,0.978-1.288,1.546-1.976,1.272C309.403,266.377,309.902,265.18,310.549,264.076z    M308.6,271.21c0-0.652,0.06-1.289,0.146-1.918c0.739,0.01,1.339,0.871,1.339,1.929c0,1.06-0.599,1.921-1.335,1.934   C308.661,272.517,308.6,271.871,308.6,271.21z M309.442,274.738c0.017,0,0.034,0,0.052,0.001c0.126,0.008,0.256,0.036,0.388,0.088   c0.12,0.047,0.239,0.109,0.354,0.191c0.014,0.01,0.027,0.021,0.04,0.031c0.09,0.066,0.174,0.143,0.254,0.227   c0.021,0.021,0.041,0.042,0.061,0.064c0.072,0.081,0.14,0.171,0.203,0.266c0.018,0.026,0.037,0.05,0.054,0.077   c0.075,0.122,0.145,0.251,0.201,0.388c0.403,0.976,0.183,1.998-0.486,2.294c-0.649-1.103-1.149-2.297-1.482-3.563   C309.193,274.758,309.316,274.737,309.442,274.738z M311.497,279.757c0.534-0.502,1.557-0.314,2.299,0.427   c0.743,0.743,0.93,1.769,0.431,2.299C313.197,281.701,312.279,280.785,311.497,279.757z M315.822,283.139   c0.014-0.014,0.02-0.031,0.033-0.044c0.101-0.094,0.224-0.172,0.368-0.232c0.356-0.146,0.798-0.169,1.241-0.07   c0.148,0.033,0.297,0.08,0.441,0.14c0.973,0.402,1.536,1.276,1.277,1.962c-1.266-0.331-2.46-0.829-3.563-1.476   C315.668,283.313,315.741,283.224,315.822,283.139z M320.83,285.222c0.008-0.249,0.11-0.487,0.3-0.695   c0.07-0.076,0.15-0.148,0.243-0.216c0.368-0.267,0.858-0.413,1.381-0.413h0.005c1.054,0,1.911,0.594,1.931,1.323   c-0.633,0.087-1.274,0.147-1.932,0.147C322.103,285.368,321.462,285.308,320.83,285.222z M326.332,284.894   c-0.03-0.08-0.049-0.163-0.058-0.248c-0.026-0.256,0.045-0.531,0.212-0.802c0.238-0.388,0.636-0.711,1.12-0.911   c0.971-0.403,1.993-0.184,2.292,0.482C328.795,284.063,327.599,284.562,326.332,284.894z M331.29,282.48   c-0.036-0.038-0.064-0.081-0.093-0.124c-0.017-0.024-0.039-0.045-0.053-0.07c-0.032-0.059-0.052-0.124-0.072-0.189   c-0.008-0.023-0.021-0.045-0.027-0.07c-0.013-0.053-0.015-0.11-0.021-0.166c-0.004-0.041-0.014-0.08-0.015-0.123   c-0.001-0.03,0.006-0.063,0.007-0.093c0.021-0.479,0.261-1.019,0.702-1.459c0.745-0.745,1.769-0.931,2.302-0.433   C333.236,280.782,332.319,281.699,331.29,282.48z M334.954,278.362c-0.053-0.024-0.101-0.056-0.147-0.088   c-0.021-0.015-0.045-0.023-0.064-0.039c-0.5-0.403-0.632-1.301-0.275-2.16c0.402-0.979,1.285-1.551,1.969-1.279   C336.104,276.063,335.604,277.259,334.954,278.362z M336.914,271.21c0,0.66-0.062,1.306-0.149,1.942   c-0.736-0.017-1.333-0.873-1.333-1.928c0-1.06,0.6-1.922,1.336-1.935C336.854,269.92,336.914,270.558,336.914,271.21z    M335.607,267.612c-0.476-0.197-0.901-0.66-1.14-1.237c-0.405-0.979-0.181-2.008,0.496-2.3c0.647,1.104,1.146,2.301,1.478,3.568   C336.188,267.741,335.901,267.735,335.607,267.612z M334.164,266.5c0.271,0.656,0.764,1.186,1.317,1.416   c0.203,0.084,0.406,0.127,0.602,0.127c0.146,0,0.284-0.036,0.42-0.083c0.006-0.002,0.013-0.002,0.019-0.004   c0.079,0.333,0.143,0.671,0.197,1.013c-0.896,0.049-1.615,1.038-1.615,2.256c0,0.155,0.012,0.308,0.034,0.454   c0.008,0.051,0.023,0.096,0.033,0.145c0.02,0.095,0.037,0.191,0.065,0.28c0,0.001,0,0.002,0.001,0.004   c0.248,0.782,0.815,1.333,1.478,1.367c-0.055,0.34-0.119,0.676-0.197,1.007c-0.851-0.294-1.891,0.345-2.354,1.469   c-0.107,0.258-0.169,0.52-0.199,0.774c-0.003,0.028-0.012,0.058-0.015,0.086c-0.007,0.078-0.002,0.153-0.002,0.23   c0,0.062-0.006,0.124-0.001,0.184c0.004,0.053,0.017,0.102,0.024,0.153c0.011,0.078,0.019,0.159,0.037,0.234   c0.008,0.03,0.021,0.057,0.03,0.086c0.027,0.091,0.056,0.182,0.095,0.265c0.008,0.017,0.02,0.029,0.027,0.046   c0.047,0.09,0.096,0.178,0.156,0.256c0.027,0.035,0.063,0.062,0.093,0.094c0.048,0.051,0.093,0.105,0.147,0.147   c0.068,0.055,0.148,0.096,0.229,0.135c-0.182,0.291-0.37,0.575-0.571,0.853c-0.671-0.588-1.873-0.395-2.729,0.46   c-0.11,0.11-0.209,0.226-0.297,0.345c-0.083,0.113-0.155,0.231-0.219,0.351c-0.003,0.006-0.008,0.012-0.011,0.018   c-0.062,0.117-0.11,0.235-0.15,0.354c-0.004,0.009-0.009,0.018-0.012,0.026c-0.041,0.124-0.07,0.249-0.089,0.372   c-0.001,0.003-0.002,0.006-0.003,0.009c-0.016,0.11-0.019,0.218-0.017,0.323c0,0.016-0.003,0.032-0.003,0.048   c0.004,0.083,0.021,0.161,0.037,0.24c0.008,0.036,0.008,0.074,0.018,0.109c0.017,0.062,0.047,0.117,0.071,0.175   c0.02,0.048,0.032,0.098,0.058,0.143c0.027,0.047,0.066,0.087,0.1,0.131c0.02,0.027,0.038,0.055,0.061,0.08   c-0.277,0.2-0.563,0.389-0.854,0.569c-0.396-0.8-1.578-1.08-2.695-0.617c-0.548,0.227-1.001,0.597-1.275,1.043   c-0.27,0.437-0.33,0.896-0.188,1.303c-0.331,0.078-0.666,0.142-1.006,0.196c-0.056-0.89-1.041-1.602-2.252-1.602h-0.006   c-0.591,0-1.149,0.168-1.572,0.475c-0.418,0.301-0.649,0.701-0.673,1.128c-0.341-0.055-0.677-0.118-1.009-0.197   c0.291-0.846-0.348-1.883-1.467-2.346c-0.493-0.206-1.022-0.271-1.491-0.194c-0.155,0.025-0.305,0.066-0.443,0.124   c-0.148,0.062-0.275,0.143-0.385,0.238c-0.108,0.096-0.199,0.205-0.276,0.323c-0.028,0.045-0.067,0.083-0.09,0.131   c-0.294-0.182-0.58-0.372-0.859-0.573c0.589-0.67,0.396-1.871-0.459-2.727c-0.856-0.856-2.06-1.047-2.727-0.456   c-0.201-0.276-0.391-0.561-0.571-0.853c0.803-0.392,1.085-1.577,0.62-2.696c-0.064-0.156-0.144-0.304-0.23-0.442   c-0.022-0.036-0.049-0.067-0.073-0.103c-0.066-0.098-0.137-0.191-0.214-0.277c-0.036-0.041-0.075-0.077-0.112-0.115   c-0.068-0.067-0.14-0.13-0.213-0.188c-0.049-0.039-0.098-0.075-0.148-0.108c-0.068-0.045-0.139-0.083-0.21-0.118   c-0.04-0.02-0.077-0.05-0.118-0.066c-0.014-0.006-0.026-0.004-0.039-0.009c-0.158-0.061-0.315-0.094-0.47-0.104   c-0.039-0.003-0.077-0.001-0.116,0c-0.139,0.002-0.275,0.022-0.409,0.068c-0.079-0.332-0.144-0.669-0.198-1.009   c0.895-0.049,1.613-1.038,1.613-2.255c0-0.155-0.012-0.308-0.034-0.455c-0.002-0.015-0.007-0.027-0.01-0.042   c-0.056-0.332-0.17-0.633-0.321-0.892c-0.016-0.027-0.029-0.058-0.046-0.084c-0.009-0.014-0.021-0.024-0.029-0.038   c-0.294-0.435-0.71-0.717-1.177-0.74c0.055-0.342,0.118-0.68,0.197-1.014c0.141,0.051,0.286,0.085,0.436,0.085   c0.743,0,1.535-0.605,1.923-1.544c0.228-0.548,0.287-1.13,0.166-1.639c-0.094-0.396-0.287-0.713-0.557-0.921   c-0.073-0.057-0.156-0.101-0.241-0.14c0.182-0.295,0.372-0.581,0.574-0.86c0.261,0.234,0.598,0.358,0.97,0.358   c0.584,0,1.241-0.278,1.766-0.805c0.107-0.107,0.205-0.221,0.291-0.338c0.604-0.817,0.684-1.815,0.155-2.399   c0.279-0.202,0.565-0.394,0.859-0.575c0.258,0.549,0.877,0.862,1.604,0.862c0.353,0,0.729-0.073,1.096-0.226   c0.443-0.184,0.811-0.458,1.076-0.774c0.411-0.488,0.572-1.077,0.383-1.592c0.334-0.079,0.672-0.144,1.014-0.198   c0.038,0.9,1.03,1.625,2.252,1.625c0.156,0,0.309-0.012,0.455-0.034c1.007-0.153,1.766-0.806,1.8-1.591   c0.34,0.055,0.676,0.119,1.008,0.197c-0.308,0.851,0.334,1.902,1.465,2.369c0.358,0.149,0.736,0.225,1.096,0.225h0.001h0.001   c0.298,0,0.583-0.052,0.834-0.155c0.174-0.072,0.318-0.171,0.445-0.284c0.012-0.01,0.031-0.016,0.043-0.027   c0.035-0.033,0.05-0.08,0.081-0.116c0.074-0.088,0.146-0.177,0.194-0.28c0.293,0.182,0.579,0.372,0.858,0.574   c-0.604,0.669-0.412,1.882,0.45,2.742c0.121,0.121,0.25,0.226,0.382,0.32c0.039,0.027,0.078,0.049,0.117,0.074   c0.099,0.063,0.198,0.121,0.3,0.169c0.044,0.021,0.087,0.04,0.132,0.058c0.102,0.042,0.203,0.076,0.305,0.104   c0.042,0.011,0.084,0.022,0.125,0.031c0.03,0.006,0.06,0.018,0.09,0.022c0.107,0.017,0.212,0.025,0.313,0.025   c0.18,0,0.345-0.036,0.501-0.089c0.018-0.006,0.039-0.003,0.057-0.01c0.146-0.055,0.273-0.146,0.392-0.249   c0.006-0.005,0.015-0.007,0.021-0.013c0.201,0.279,0.391,0.565,0.572,0.858C333.985,264.186,333.699,265.377,334.164,266.5z    M334.017,262.69c-0.06,0.055-0.122,0.104-0.192,0.143c-0.018,0.01-0.039,0.014-0.057,0.023c-0.064,0.029-0.129,0.058-0.199,0.076   c-0.029,0.007-0.062,0.008-0.091,0.013c-0.063,0.011-0.126,0.022-0.192,0.023c-0.078,0.002-0.161-0.006-0.245-0.017   c-0.018-0.003-0.034-0.002-0.052-0.005c-0.109-0.018-0.219-0.045-0.326-0.082c-0.002-0.001-0.005-0.001-0.008-0.002   c-0.1-0.035-0.197-0.08-0.295-0.131c-0.223-0.116-0.44-0.272-0.638-0.47c-0.751-0.749-0.938-1.786-0.423-2.315   c1.03,0.783,1.948,1.702,2.73,2.733C334.025,262.685,334.021,262.687,334.017,262.69z"/><path d="M322.758,259.817c-6.282,0-11.394,5.111-11.394,11.393c0,6.282,5.111,11.394,11.394,11.394   c6.281,0,11.392-5.111,11.392-11.394C334.149,264.929,329.039,259.817,322.758,259.817z M322.758,282.086   c-5.997,0-10.876-4.879-10.876-10.876s4.879-10.875,10.876-10.875c5.996,0,10.874,4.878,10.874,10.875   S328.754,282.086,322.758,282.086z"/><path d="M322.758,267.172c-2.152,0-3.901,1.695-4.018,3.818h-6.423v0.231c0,5.762,4.688,10.449,10.448,10.449   s10.448-4.688,10.448-10.449v-0.231h-6.438C326.659,268.867,324.91,267.172,322.758,267.172z M322.758,267.635   c1.973,0,3.577,1.604,3.577,3.575c0,1.974-1.604,3.578-3.577,3.578s-3.577-1.604-3.577-3.578   C319.181,269.238,320.785,267.635,322.758,267.635z M322.766,281.208c-5.429,0-9.859-4.354-9.983-9.755h5.96   c0.129,2.112,1.871,3.798,4.016,3.798s3.887-1.686,4.016-3.798h5.976C332.625,276.854,328.194,281.208,322.766,281.208z"/></g><text x="0" y="440.197" fill="#000000" font-size="5px" font-weight="bold" font-family="'Helvetica Neue', Helvetica, Arial-Unicode, Arial, Sans-serif">Created by John Burraco</text><text x="0" y="445.197" fill="#000000" font-size="5px" font-weight="bold" font-family="'Helvetica Neue', Helvetica, Arial-Unicode, Arial, Sans-serif">from the Noun Project</text></svg>